<svg xmlns="http://www.w3.org/2000/svg" viewBox="0 0 50.91 42.37"><defs><style>.cls-1{fill:#0080c9;}</style></defs><title>boum</title><g id="Layer_2" data-name="Layer 2"><g id="Calque_1" data-name="Calque 1"><polygon class="cls-1" points="37.31 0 24.88 5.3 32.98 4.53 30.42 10.83 39.96 12.6 33.84 16.61 41.9 22.58 32.34 22.37 35.49 29.97 26.79 27.02 27.32 36.36 18.99 31.21 31.07 42.37 28.71 29.8 41.22 36.1 36.13 25.38 50.91 25.77 37.45 16.36 46.67 11.16 33.51 9.51 37.31 0"/><polygon class="cls-1" points="16.34 9.67 7.25 5.23 10.83 13.02 0 12.94 9.73 19.65 2.9 23.59 12.53 24.62 9.61 31.64 18.8 27.58 12.85 28.26 14.81 23.6 7.85 22.45 12.39 19.42 6.56 15.15 13.57 15.17 11.37 9.64 17.7 11.68 17.45 4.84 23.48 8.5 14.78 0.49 16.34 9.67"/><path class="cls-1" d="M26.47,18.32a.66.66,0,0,0,1.32,0,.66.66,0,0,0-1.32,0m-2.73,0a.66.66,0,0,0,1.32,0,.66.66,0,0,0-1.32,0m-2.73,0a.66.66,0,0,0,1.32,0,.66.66,0,0,0-1.32,0"/></g></g></svg>