<svg xmlns="http://www.w3.org/2000/svg" xmlns:xlink="http://www.w3.org/1999/xlink" viewBox="0 0 49.63 37.61"><defs><style>.cls-1{fill:none;}.cls-2{fill:#ec9d8e;}.cls-3{clip-path:url(#clip-path);}.cls-4{fill:#fff;}.cls-5{fill:#3c3c3b;}.cls-6{fill:#16262e;}.cls-7{fill:#df5a51;}.cls-8{opacity:0.25;}.cls-9{clip-path:url(#clip-path-4);}</style><clipPath id="clip-path" transform="translate(0)"><rect class="cls-1" width="49.63" height="37.61"/></clipPath><clipPath id="clip-path-4" transform="translate(0)"><rect class="cls-1" x="24.23" y="4.13" width="26.21" height="21.07"/></clipPath></defs><title>buildings</title><g id="Layer_2" data-name="Layer 2"><g id="Calque_1" data-name="Calque 1"><polygon class="cls-2" points="7.61 0.46 7.61 2.83 8.51 2.83 21.26 2.83 22.16 2.83 22.16 0.46 7.61 0.46"/><g class="cls-3"><path class="cls-2" d="M30.77,10.93H20.4v2.12H30.77Zm0,4.09H20.4v2.12H30.77Zm0,4.09H20.4v2.12H30.77Zm0,4.09H20.4v2.13H30.77Zm-2,4.69H22.44v4.78H17.78V8.17H33.39V28.82A2.44,2.44,0,0,0,32.24,30L32,30a1.77,1.77,0,0,0-1.77,1.77v0a1.72,1.72,0,0,0,.26.9H28.73Z" transform="translate(0)"/></g><rect class="cls-4" x="15.8" y="21.39" width="1.98" height="3.21"/><rect class="cls-4" x="20.4" y="23.2" width="10.38" height="2.13"/><rect class="cls-4" x="20.4" y="19.11" width="10.38" height="2.12"/><rect class="cls-4" x="20.4" y="15.02" width="10.38" height="2.12"/><rect class="cls-4" x="20.4" y="10.93" width="10.38" height="2.13"/><polygon class="cls-4" points="19.3 4.96 19.3 8.17 17.78 8.17 15.8 8.17 15.8 4.96 19.3 4.96"/><rect class="cls-4" x="15.8" y="15.92" width="1.98" height="3.21"/><rect class="cls-4" x="15.8" y="10.44" width="1.98" height="3.21"/><rect class="cls-4" x="10.47" y="21.39" width="3.5" height="3.21"/><rect class="cls-4" x="10.47" y="15.92" width="3.5" height="3.21"/><rect class="cls-4" x="10.47" y="10.44" width="3.5" height="3.21"/><rect class="cls-4" x="10.47" y="4.97" width="3.5" height="3.21"/><g class="cls-3"><path class="cls-5" d="M10.93,24.14h2.58V21.85H10.93Zm3,.92h-3.5A.46.46,0,0,1,10,24.6V21.39a.47.47,0,0,1,.46-.46H14a.47.47,0,0,1,.47.46V24.6a.46.46,0,0,1-.47.46" transform="translate(0)"/><path class="cls-5" d="M10.93,18.67h2.58V16.38H10.93Zm3,.92h-3.5a.47.47,0,0,1-.46-.46V15.92a.46.46,0,0,1,.46-.46H14a.46.46,0,0,1,.47.46v3.21a.47.47,0,0,1-.47.46" transform="translate(0)"/><path class="cls-5" d="M10.93,13.19h2.58V10.9H10.93Zm3,.92h-3.5a.46.46,0,0,1-.46-.46V10.44a.47.47,0,0,1,.46-.46H14a.47.47,0,0,1,.47.46v3.21a.46.46,0,0,1-.47.46" transform="translate(0)"/><path class="cls-5" d="M10.93,7.71h2.58V5.43H10.93Zm3,.92h-3.5A.46.46,0,0,1,10,8.17V5a.47.47,0,0,1,.46-.47H14a.47.47,0,0,1,.47.47v3.2a.46.46,0,0,1-.47.46" transform="translate(0)"/><path class="cls-5" d="M17.78,8.63h-2a.45.45,0,0,1-.46-.46V5a.46.46,0,0,1,.46-.47h3.5a.46.46,0,0,1,.46.47v3.2h-.92V5.43H16.26V7.71h1.52Z" transform="translate(0)"/><path class="cls-5" d="M17.78,14.11h-2a.45.45,0,0,1-.46-.46V10.44A.46.46,0,0,1,15.8,10h2v.92H16.26v2.29h1.52Z" transform="translate(0)"/><path class="cls-5" d="M17.78,25.06h-2a.45.45,0,0,1-.46-.46V21.39a.46.46,0,0,1,.46-.46h2v.92H16.26v2.29h1.52Z" transform="translate(0)"/><path class="cls-5" d="M17.78,19.59h-2a.46.46,0,0,1-.46-.46V15.92a.45.45,0,0,1,.46-.46h2v.92H16.26v2.29h1.52Z" transform="translate(0)"/><path class="cls-5" d="M20.86,12.59h9.45v-1.2H20.86Zm9.91.93H20.4a.47.47,0,0,1-.47-.46V10.93a.46.46,0,0,1,.47-.46H30.77a.46.46,0,0,1,.47.46v2.13a.47.47,0,0,1-.47.46" transform="translate(0)"/><path class="cls-5" d="M20.86,16.68h9.45v-1.2H20.86Zm9.91.93H20.4a.47.47,0,0,1-.47-.46V15a.47.47,0,0,1,.47-.46H30.77a.47.47,0,0,1,.47.46v2.13a.47.47,0,0,1-.47.46" transform="translate(0)"/><path class="cls-5" d="M20.86,20.77h9.45v-1.2H20.86Zm9.91.93H20.4a.47.47,0,0,1-.47-.47V19.11a.47.47,0,0,1,.47-.46H30.77a.47.47,0,0,1,.47.46v2.12a.47.47,0,0,1-.47.47" transform="translate(0)"/><path class="cls-5" d="M20.86,24.87h9.45V23.66H20.86Zm9.91.92H20.4a.47.47,0,0,1-.47-.46V23.2a.47.47,0,0,1,.47-.46H30.77a.47.47,0,0,1,.47.46v2.13a.47.47,0,0,1-.47.46" transform="translate(0)"/></g><rect class="cls-5" x="28.27" y="27.89" width="0.92" height="4.78"/><rect class="cls-5" x="21.98" y="27.89" width="0.92" height="4.78"/><g class="cls-3"><path class="cls-5" d="M13.34,32.67h-.92V27.89a.47.47,0,0,1,.46-.46h4.9v.92H13.34Z" transform="translate(0)"/><path class="cls-5" d="M22.16,3.29h-.9V2.37h.44V.92H8.07V2.37h.44v.92h-.9a.46.46,0,0,1-.46-.46V.46A.47.47,0,0,1,7.61,0H22.16a.46.46,0,0,1,.46.46V2.83a.45.45,0,0,1-.46.46" transform="translate(0)"/></g><rect class="cls-5" x="21.26" y="27.43" width="8.64" height="0.92"/><rect class="cls-5" x="3.37" y="22.88" width="0.92" height="6.49"/><path class="cls-5" d="M3.83,17.49c-1.6,0-2.91,1.7-2.91,3.79s1.31,3.79,2.91,3.79,2.91-1.7,2.91-3.79-1.31-3.79-2.91-3.79m0,8.5C1.72,26,0,23.87,0,21.28s1.72-4.71,3.83-4.71,3.83,2.11,3.83,4.71S5.94,26,3.83,26" transform="translate(0)"/><path class="cls-5" d="M30.79,32.21h6.83a.28.28,0,0,0,0-.09.9.9,0,0,0-.79-.9.48.48,0,0,1-.41-.41,2,2,0,0,0-2-1.77,1.9,1.9,0,0,0-.85.2,2,2,0,0,0-1,.94.46.46,0,0,1-.48.26l-.17,0a1.31,1.31,0,0,0-1.31,1.31,1.52,1.52,0,0,0,.1.48m7.18.92H30.51a.47.47,0,0,1-.39-.21,2.35,2.35,0,0,1-.35-1.17A2.24,2.24,0,0,1,32,29.5a3,3,0,0,1,1.22-1.09,2.87,2.87,0,0,1,1.26-.29,2.9,2.9,0,0,1,2.84,2.26,1.83,1.83,0,0,1,1.26,1.74,1.92,1.92,0,0,1-.15.74.48.48,0,0,1-.43.27" transform="translate(0)"/><path class="cls-5" d="M30.49,33.13H17.78v-.92h12a2.12,2.12,0,0,1-.05-.44A2.24,2.24,0,0,1,32,29.55a2.91,2.91,0,0,1,.95-1v-20H21.26V7.71H33.39a.46.46,0,0,1,.46.46v20.7a.45.45,0,0,1-.26.41,2,2,0,0,0-.94.94.44.44,0,0,1-.48.26H32a1.3,1.3,0,0,0-1.12,2,.46.46,0,0,1,0,.47.46.46,0,0,1-.4.23" transform="translate(0)"/><path class="cls-5" d="M10.63,33.17H1.75A.47.47,0,0,1,1.36,33,2.56,2.56,0,0,1,3.54,29a3.4,3.4,0,0,1,2.9-1.64,3.33,3.33,0,0,1,2.4,1,3.06,3.06,0,0,1,.64.91q.06.12.12.27a2.43,2.43,0,0,1,.14.48l-.9.19a2,2,0,0,0-.1-.35l-.09-.19A2.18,2.18,0,0,0,8.19,29a2.46,2.46,0,0,0-4,.67.44.44,0,0,1-.47.26l-.23,0a1.65,1.65,0,0,0-1.64,1.64,1.52,1.52,0,0,0,.15.66h8.6v.42l.44.17v0a.49.49,0,0,1-.43.29" transform="translate(0)"/><path class="cls-6" d="M8.85,30.31v0l.9-.19a.69.69,0,0,1,0,.13Z" transform="translate(0)"/><path class="cls-6" d="M11.12,32.71l-.87-.3a.29.29,0,0,0,0-.09.06.06,0,0,0,0,0l.93,0,0,.16a.9.9,0,0,1-.06.22" transform="translate(0)"/><path class="cls-5" d="M11.22,32.21h6.1v-24a.46.46,0,0,1,.46-.46h3V3.29H9V28.54a2.93,2.93,0,0,1,.51.75c0,.09.08.17.11.26a2.38,2.38,0,0,1,.15.5h0a2.09,2.09,0,0,1,1.49,2s0,.1,0,.15m6.56.92H10.65a.46.46,0,0,1-.43-.64l0-.08,0-.11v-.08a.86.86,0,0,0,0-.16,1.16,1.16,0,0,0-1-1.16.47.47,0,0,1-.4-.41.68.68,0,0,0,0-.14.06.06,0,0,0,0,0v-.06h0a2,2,0,0,0-.1-.35c0-.06-.05-.12-.09-.19A2.37,2.37,0,0,0,8.19,29a.45.45,0,0,1-.14-.32V2.83a.47.47,0,0,1,.46-.46H21.26a.47.47,0,0,1,.46.46V8.17a.46.46,0,0,1-.46.46h-3v24a.46.46,0,0,1-.46.46" transform="translate(0)"/><path class="cls-7" d="M30.82,20.44a9.45,9.45,0,0,1-.42-2.78,9.37,9.37,0,1,1,11,9.21h0l-.41.07-.37,0a3,3,0,0,1-.42,0l-.47,0-.48,0c-.16,0-.31,0-.47,0h-.07l-.34,0-.35-.06a9.41,9.41,0,0,1-7.24-6.43M41.44,24a6.54,6.54,0,0,0,0-12.64,6.65,6.65,0,0,0-1.67-.21,6.54,6.54,0,1,0,0,13.07A6.65,6.65,0,0,0,41.44,24" transform="translate(0)"/><path class="cls-7" d="M41.45,32.65v2.77a1.7,1.7,0,1,1-3.4,0V32.67h3.39v0Z" transform="translate(0)"/><rect class="cls-2" x="38.05" y="30.27" width="3.38" height="2.38"/><path class="cls-7" d="M41.44,26.87v3.4H38.05V26.93s0,0,0-.06l.35.06.34,0h.07c.16,0,.31,0,.47,0l.48,0,.47,0a3,3,0,0,0,.42,0l.37,0,.41-.07Z" transform="translate(0)"/><g class="cls-8"><g class="cls-9"><path class="cls-7" d="M41.44,11.35V24a6.65,6.65,0,0,1-1.67.22,6.54,6.54,0,1,1,0-13.07,6.65,6.65,0,0,1,1.67.21Z" transform="translate(0)"/></g></g><path class="cls-5" d="M38.55,30.27h-1V26.86a.49.49,0,0,1,.6-.48l.22,0,.11,0,.32,0-.11,1,.06-.49-.07.49h-.14Z" transform="translate(0)"/><path class="cls-6" d="M39.77,27.52h-.52l-.48,0,.11-1,.43,0a6.76,6.76,0,0,0,.9,0l.06,1h-.5" transform="translate(0)"/><path class="cls-6" d="M40.71,27.48l-.1-1,.34,0,.4-.07.17,1-.43.07-.38.05" transform="translate(0)"/><path class="cls-5" d="M41.94,30.27H41V26.93A.11.11,0,0,0,41,27l1-.21a1.1,1.1,0,0,1,0,.16Z" transform="translate(0)"/><path class="cls-5" d="M38.55,30.77v4.65a1.2,1.2,0,0,0,1.19,1.2v0a1.2,1.2,0,0,0,1.2-1.2V30.77Zm1.19,6.84a2.19,2.19,0,0,1-2.18-2.19V30.27a.5.5,0,0,1,.49-.5h3.39a.51.51,0,0,1,.5.5v5.15a2.19,2.19,0,0,1-2.19,2.19Z" transform="translate(0)"/><path class="cls-5" d="M39.77,8.8a8.86,8.86,0,0,0-8.87,8.86,8.71,8.71,0,0,0,.4,2.64,8.9,8.9,0,0,0,6.85,6.08l.32.05a2.11,2.11,0,0,0,.33,0h.08l.43,0a6.76,6.76,0,0,0,.9,0l.4,0,.34,0,.38-.06h.05a8.87,8.87,0,0,0,0-17.44,9.1,9.1,0,0,0-1.58-.14m0,18.72h-.52l-.46,0h-.1l-.37,0L38,27.35a9.79,9.79,0,0,1-5.69-3.3,9.78,9.78,0,0,1-2.35-6.39A9.86,9.86,0,0,1,39.77,7.8,10.1,10.1,0,0,1,41.53,8a9.86,9.86,0,0,1,0,19.4h0a2.79,2.79,0,0,1-.43.06l-.38.05-.44,0h-.49" transform="translate(0)"/><path class="cls-5" d="M39.77,11.62a6,6,0,0,0,0,12.08,6.14,6.14,0,0,0,1.54-.2,6,6,0,0,0,0-11.68,6.26,6.26,0,0,0-1.54-.2m0,13.07a7,7,0,0,1,0-14.06,7.26,7.26,0,0,1,1.79.23,7,7,0,0,1,0,13.6,6.89,6.89,0,0,1-1.8.23" transform="translate(0)"/><path class="cls-5" d="M37.71,14.63l-.56-.82a4.73,4.73,0,0,1,1.58-.69l.22,1a3.69,3.69,0,0,0-1.24.54" transform="translate(0)"/><path class="cls-5" d="M36.85,21.3a4.67,4.67,0,0,1-.42-6.89l.71.7a3.65,3.65,0,0,0,.34,5.41Z" transform="translate(0)"/><rect class="cls-5" x="38.05" y="32.15" width="3.39" height="1"/></g></g></svg>