<svg xmlns="http://www.w3.org/2000/svg" xmlns:xlink="http://www.w3.org/1999/xlink" viewBox="0 0 40.56 37.61"><defs><style>.cls-1{fill:none;}.cls-2{fill:#3c3c3b;}.cls-3{fill:#df5a51;}.cls-4{fill:#ec9d8e;}.cls-5{opacity:0.25;}.cls-6{clip-path:url(#clip-path);}.cls-7{fill:#16262e;}</style><clipPath id="clip-path"><rect class="cls-1" x="15.16" y="4.13" width="26.21" height="21.07"/></clipPath></defs><title>chatbubble</title><g id="Layer_2" data-name="Layer 2"><g id="Calque_1" data-name="Calque 1"><path class="cls-2" d="M34.22,23.46c-3.4,1.29-8.14.05-11.74.33a1.29,1.29,0,0,0-.21.05.64.64,0,0,0-.88-.25c-1.07.6-1.1,2.45-1.28,3.5s-.37,2.25-.64,3.36c-.94-1.81-1.65-3.71-2.67-5.48a.41.41,0,0,0-.74.07.27.27,0,0,0-.12,0c-2.79,0-5.54.22-8.31.36-5.9.3-5.79-3.86-5.66-8.43.07-2.81.44-5.58.51-8.38C2.65,2.3,6.53,1.7,11.76,1.84s10.67.43,16,.77c2.22.14,4.4.34,6.62.34,3,0,2.56,3.4,2.56,5.44,0,3.27,1.11,13.62-2.7,15.07M38.74,8.39c0-2.16.65-6.89-2.65-7.17C28,.54,19.83.35,11.75.07,8.85,0,4.19-.39,2.31,2.51,0,6.1.48,11.51.25,15.63.11,18-.82,25,2.13,26.45c4.12,2.1,9.46.21,13.81-.12a.74.74,0,0,0,.34-.14A25.49,25.49,0,0,0,19,32.87a.83.83,0,0,0,1.51-.19,21.58,21.58,0,0,0,1.15-4.74c.13-.73.43-1.6.61-2.43a1.43,1.43,0,0,0,.23,0c4-.31,10.22,1.41,13.7-1.17s2.51-12.4,2.54-16"/><path class="cls-2" d="M22.72,14.36a1.06,1.06,0,1,0,1.06-1,1,1,0,0,0-1.06,1m-4.36,0a1.06,1.06,0,1,0,1.06-1,1,1,0,0,0-1.06,1m-4.36,0a1.06,1.06,0,1,0,1.06-1,1,1,0,0,0-1.06,1"/><path class="cls-3" d="M21.76,20.44a9.13,9.13,0,0,1-.43-2.78A9.38,9.38,0,0,1,30.7,8.3a9.18,9.18,0,0,1,1.67.15,9.36,9.36,0,0,1,0,18.42h0l-.41.07-.37,0a3,3,0,0,1-.42,0l-.47,0-.48,0c-.16,0-.31,0-.46,0h-.07l-.35,0L29,26.87a9.36,9.36,0,0,1-5.42-3.14,9.21,9.21,0,0,1-1.81-3.29M32.37,24a6.52,6.52,0,1,0-1.67.22A6.54,6.54,0,0,0,32.37,24"/><path class="cls-3" d="M32.38,32.65v2.77a1.7,1.7,0,1,1-3.39,0V32.67h3.38v0Z"/><rect class="cls-4" x="28.99" y="30.27" width="3.38" height="2.38"/><path class="cls-3" d="M32.37,26.87v3.4H29v-3.4l.35.06.35,0h.07c.15,0,.3,0,.46,0l.48,0,.47,0a3,3,0,0,0,.42,0l.37,0,.41-.07Z"/><g class="cls-5"><g class="cls-6"><path class="cls-3" d="M32.37,11.35V24a6.53,6.53,0,1,1,0-12.64Z"/></g></g><path class="cls-2" d="M29.48,30.27h-1V26.86a.49.49,0,0,1,.6-.48l.22,0,.11,0,.32,0-.11,1,.06-.49-.06.49h-.15Z"/><path class="cls-7" d="M30.7,27.52h-.52l-.48,0,.11-1,.43,0a6.76,6.76,0,0,0,.9,0l.06,1h-.5"/><path class="cls-7" d="M31.64,27.48l-.1-1,.34,0,.4-.07.17,1-.43.07-.38.05"/><path class="cls-2" d="M32.87,30.27h-1V26.93a.11.11,0,0,0,0,.05l1-.21a1.1,1.1,0,0,1,0,.16Z"/><path class="cls-2" d="M29.48,30.77v4.65a1.2,1.2,0,0,0,1.2,1.2v0a1.2,1.2,0,0,0,1.2-1.2V30.77Zm1.2,6.84a2.19,2.19,0,0,1-2.19-2.19V30.27a.5.5,0,0,1,.5-.5h3.38a.51.51,0,0,1,.5.5v5.15a2.19,2.19,0,0,1-2.19,2.19Z"/><path class="cls-2" d="M30.7,8.8a8.86,8.86,0,0,0-8.87,8.86,9,9,0,0,0,.4,2.64,8.9,8.9,0,0,0,6.85,6.08l.32.05a2.26,2.26,0,0,0,.33,0h.08l.43,0a6.76,6.76,0,0,0,.9,0l.4,0,.34,0,.38-.06h.05a8.87,8.87,0,0,0,0-17.44A9.1,9.1,0,0,0,30.7,8.8m0,18.72h-.52l-.46,0h-.1l-.37,0-.37-.07a9.88,9.88,0,0,1-7.6-6.76A9.87,9.87,0,0,1,30.7,7.8,10.1,10.1,0,0,1,32.46,8a9.86,9.86,0,0,1,0,19.4h0a2.79,2.79,0,0,1-.43.06l-.38.05-.44,0H30.7"/><path class="cls-2" d="M30.7,11.62a6,6,0,1,0,0,12.08,6.14,6.14,0,0,0,1.54-.2,6,6,0,0,0,0-11.68,6.14,6.14,0,0,0-1.54-.2m0,13.07a7,7,0,1,1,0-14.06,7.34,7.34,0,0,1,1.8.23,7,7,0,0,1,0,13.6,6.89,6.89,0,0,1-1.8.23"/><path class="cls-2" d="M28.64,14.63l-.55-.82a4.59,4.59,0,0,1,1.57-.69l.22,1a3.69,3.69,0,0,0-1.24.54"/><path class="cls-2" d="M27.78,21.3a4.67,4.67,0,0,1-.42-6.89l.72.7a3.6,3.6,0,0,0-1,2.55,3.66,3.66,0,0,0,1.38,2.86Z"/><rect class="cls-2" x="28.99" y="32.15" width="3.39" height="1"/></g></g></svg>