<svg xmlns="http://www.w3.org/2000/svg" viewBox="0 0 80.5 80.5"><defs><style>.cls-1{fill:none;stroke:#fff;stroke-miterlimit:10;stroke-width:0.5px;}.cls-2{fill:#fff;}</style></defs><title>Fichier 3</title><g id="Calque_2" data-name="Calque 2"><g id="_24_Grid_Col" data-name="24 Grid Col"><circle class="cls-1" cx="40.25" cy="40.25" r="40"/><path class="cls-2" d="M16.65,23.41,40.43,45.79,64,23.42a2.44,2.44,0,0,1,.3-.19,6.53,6.53,0,0,0-4-1.37h-40a6.55,6.55,0,0,0-3.95,1.33,2,2,0,0,1,.36.22"/><path class="cls-2" d="M65.68,54.2a2.28,2.28,0,0,1,.62.43,6.19,6.19,0,0,0,.48-2.37v-24a6.09,6.09,0,0,0-.12-1.11L52.21,40.86c5.83,6,12.11,12.26,13.47,13.34"/><path class="cls-2" d="M48.91,44,42,50.54a2.33,2.33,0,0,1-3.19,0l-7.07-6.65L17.31,57.94a6.6,6.6,0,0,0,2.93.71h40a6.52,6.52,0,0,0,2.91-.7c-1.9-1.3-5.53-5-14.26-13.95"/><path class="cls-2" d="M13.84,27a6.34,6.34,0,0,0-.12,1.22v24a6.24,6.24,0,0,0,.47,2.36L28.46,40.77Z"/></g></g></svg>