<svg xmlns="http://www.w3.org/2000/svg" viewBox="0 0 44.45 43.14"><defs><style>.cls-1{fill:#0080c9;}</style></defs><title>cycle</title><g id="Layer_2" data-name="Layer 2"><g id="Calque_1" data-name="Calque 1"><path class="cls-1" d="M2.2,17.64l-1.15-.23a21.58,21.58,0,0,1,42.28-.32l-1.14.24a20.41,20.41,0,0,0-40,.31"/><polygon class="cls-1" points="0 16.64 1.43 18.71 3.51 17.28 3.78 15.79 1.71 17.22 0.27 15.15 0 16.64"/><path class="cls-1" d="M22.22,43.14A21.65,21.65,0,0,1,1.12,26.05l1.14-.24a20.41,20.41,0,0,0,40-.3l1.14.22A21.59,21.59,0,0,1,22.22,43.14"/><polygon class="cls-1" points="40.94 25.86 40.67 27.35 42.74 25.92 44.17 28 44.45 26.51 43.02 24.43 40.94 25.86"/></g></g></svg>