<svg xmlns="http://www.w3.org/2000/svg" viewBox="0 0 159.75 160.21"><defs><style>.cls-1{fill:none;stroke:#fff;stroke-miterlimit:10;}.cls-2{fill:#fff;}</style></defs><title>Fichier 1</title><g id="Calque_2" data-name="Calque 2"><g id="Calque_1-2" data-name="Calque 1"><ellipse class="cls-1" cx="79.87" cy="80.11" rx="79.37" ry="79.61"/><path class="cls-2" d="M59.23,126H100.5V89.37a20.64,20.64,0,1,0-41.27,0ZM56,89.37v28.4H40.44V92.15A14.25,14.25,0,0,1,54.68,77.93a14,14,0,0,1,4,.64A23.56,23.56,0,0,0,56,89.37m63.33,28.4H103.76V89.37a23.5,23.5,0,0,0-2.7-10.8,14.07,14.07,0,0,1,4-.64A14.24,14.24,0,0,1,119.3,92.15ZM79.87,38.9A13.17,13.17,0,1,0,93,52.06,13.18,13.18,0,0,0,79.87,38.9m-43,44a9.65,9.65,0,0,1,2.76.45,17.24,17.24,0,0,0-2.45,8.78v18.67H27V92.76a9.85,9.85,0,0,1,9.84-9.84M54.67,56.69a8.9,8.9,0,1,0,8.9,8.91,8.92,8.92,0,0,0-8.9-8.91m78,54.13H122.56V92.15a17.41,17.41,0,0,0-2.46-8.78,9.68,9.68,0,0,1,12.6,9.39ZM105.08,56.69A8.9,8.9,0,1,0,114,65.6a8.9,8.9,0,0,0-8.91-8.91M36.88,67.57a6,6,0,1,0,6,6,6,6,0,0,0-6-6m86,0a6,6,0,1,0,6,6,6,6,0,0,0-6-6"/></g></g></svg>