<svg xmlns="http://www.w3.org/2000/svg" xmlns:xlink="http://www.w3.org/1999/xlink" viewBox="0 0 32.64 37.44"><defs><style>.cls-1{fill:none;}.cls-2{clip-path:url(#clip-path);}.cls-3{fill:#df5a51;}.cls-4{fill:#ec9d8e;}.cls-5{opacity:0.25;}.cls-6{clip-path:url(#clip-path-4);}.cls-7{fill:#3c3c3b;}.cls-8{fill:#16262e;}</style><clipPath id="clip-path" transform="translate(0)"><rect class="cls-1" width="32.64" height="37.44"/></clipPath><clipPath id="clip-path-4" transform="translate(0)"><rect class="cls-1" x="7.32" y="4.07" width="26.17" height="21.01"/></clipPath></defs><title>document</title><g id="Layer_2" data-name="Layer 2"><g id="Calque_1" data-name="Calque 1"><g class="cls-2"><g class="cls-2"><path class="cls-3" d="M13.92,20.35a9.45,9.45,0,0,1-.42-2.78,9.33,9.33,0,0,1,9.32-9.32,8.37,8.37,0,0,1,1.67.16,9.32,9.32,0,0,1,0,18.34h0c-.14,0-.27.05-.41.06l-.37.05-.42,0h-.94l-.46,0h-.07l-.35-.05-.35-.06a9.26,9.26,0,0,1-5.39-3.12,9.37,9.37,0,0,1-1.81-3.27m10.57,3.52a6.53,6.53,0,1,0-1.67.21,6.51,6.51,0,0,0,1.67-.21" transform="translate(0)"/><path class="cls-3" d="M24.5,32.5v2.76a1.69,1.69,0,1,1-3.38,0V32.52h3.37v0Z" transform="translate(0)"/></g><rect class="cls-4" x="21.12" y="30.13" width="3.37" height="2.37"/><g class="cls-2"><path class="cls-3" d="M24.49,26.75v3.38H21.12V26.74l.35.06.35.05h.07l.46,0h.94l.42,0,.37-.05a2.9,2.9,0,0,0,.41-.06Z" transform="translate(0)"/><g class="cls-5"><g class="cls-6"><path class="cls-3" d="M24.49,11.29V23.87a6.51,6.51,0,1,1,0-12.59Z" transform="translate(0)"/></g></g></g><polygon class="cls-3" points="0.5 5.93 6.08 5.93 6.08 0.49 0.5 5.93"/><g class="cls-2"><path class="cls-7" d="M25,8.4H24V1H6.08V0H24.49A.49.49,0,0,1,25,.5Z" transform="translate(0)"/><path class="cls-7" d="M24.49,33H.5a.5.5,0,0,1-.5-.5V5.93H1V32H24V26.75h1V32.5a.53.53,0,0,1-.5.52" transform="translate(0)"/></g><rect class="cls-7" x="23.99" y="11.29" width="0.99" height="12.64"/><g class="cls-2"><path class="cls-7" d="M1.72,5.44H5.59V1.67Zm4.36,1H.5A.48.48,0,0,1,0,6.12a.49.49,0,0,1,.11-.54L5.74.14A.49.49,0,0,1,6.28,0a.51.51,0,0,1,.3.46V5.93a.5.5,0,0,1-.5.5" transform="translate(0)"/></g><rect class="cls-7" x="10.03" y="3.75" width="5.58" height="0.99"/><rect class="cls-7" x="4.04" y="10.04" width="12.66" height="0.99"/><rect class="cls-7" x="4.04" y="13.32" width="10.21" height="0.99"/><rect class="cls-7" x="4.04" y="16.58" width="9.45" height="0.99"/><rect class="cls-7" x="4.04" y="19.85" width="9.97" height="0.99"/><rect class="cls-7" x="4.04" y="23.12" width="11.88" height="0.99"/><rect class="cls-7" x="4.25" y="26.39" width="8.57" height="0.99"/><g class="cls-2"><path class="cls-7" d="M21.61,30.13h-1V26.81s0-.06,0-.08a.48.48,0,0,1,.18-.38.49.49,0,0,1,.41-.09l.22,0,.11,0,.32,0-.11,1,.06-.5-.06.5-.15,0Z" transform="translate(0)"/><path class="cls-8" d="M22.82,27.4l-.51,0a4.05,4.05,0,0,1-.48,0l.11-1c.14,0,.28,0,.42,0a6.75,6.75,0,0,0,.9,0l.06,1-.5,0" transform="translate(0)"/><path class="cls-8" d="M23.76,27.35l-.1-1,.34-.05.4-.06.17,1c-.14,0-.28.05-.43.06l-.38.05" transform="translate(0)"/><path class="cls-7" d="M25,30.13H24V26.81a.06.06,0,0,0,0,0l1-.21a1.16,1.16,0,0,1,0,.17Z" transform="translate(0)"/><path class="cls-7" d="M21.61,30.63v4.63a1.19,1.19,0,0,0,1.19,1.19v0A1.19,1.19,0,0,0,24,35.26V30.63Zm1.19,6.81a2.19,2.19,0,0,1-2.18-2.18V30.13a.5.5,0,0,1,.5-.49h3.37a.5.5,0,0,1,.5.49v5.13a2.19,2.19,0,0,1-2.18,2.18Z" transform="translate(0)"/><path class="cls-7" d="M22.82,8.75a8.82,8.82,0,0,0-1.61,17.5l.33.06.32,0h.08c.14,0,.28,0,.42,0a6.75,6.75,0,0,0,.9,0,2.83,2.83,0,0,0,.41,0l.33,0a3,3,0,0,0,.38-.05h.05a8.83,8.83,0,0,0,0-17.37,9,9,0,0,0-1.58-.14m0,18.65-.51,0-.46,0h-.1l-.36-.05L21,27.23a9.79,9.79,0,0,1-5.66-3.29,9.66,9.66,0,0,1-1.9-3.45A9.53,9.53,0,0,1,13,17.57a9.83,9.83,0,0,1,9.82-9.81,9.14,9.14,0,0,1,1.76.16,9.82,9.82,0,0,1,0,19.32h0l-.43.07-.38,0a3,3,0,0,1-.43,0l-.5,0" transform="translate(0)"/><path class="cls-7" d="M22.82,11.56a6,6,0,0,0,0,12,6.14,6.14,0,0,0,1.54-.2,6,6,0,0,0,0-11.63,6.14,6.14,0,0,0-1.54-.2m0,13a7,7,0,0,1,0-14,7.2,7.2,0,0,1,1.79.23,7,7,0,0,1,0,13.55,7.34,7.34,0,0,1-1.8.23" transform="translate(0)"/><path class="cls-7" d="M20.78,14.56l-.56-.82a4.68,4.68,0,0,1,1.57-.69L22,14a3.56,3.56,0,0,0-1.23.54" transform="translate(0)"/><path class="cls-7" d="M19.92,21.19a4.62,4.62,0,0,1-.42-6.85l.71.69a3.66,3.66,0,0,0,.33,5.39Z" transform="translate(0)"/></g><rect class="cls-7" x="21.12" y="32" width="3.37" height="0.99"/></g></g></g></svg>