<svg xmlns="http://www.w3.org/2000/svg" viewBox="0 0 80.5 80.5"><defs><style>.cls-1{fill:#fff;}.cls-2{fill:none;stroke:#fff;stroke-miterlimit:10;stroke-width:0.5px;}</style></defs><title>Fichier 1</title><g id="Calque_2" data-name="Calque 2"><g id="_24_Grid_Col" data-name="24 Grid Col"><path class="cls-1" d="M58.91,46.63a1.17,1.17,0,0,1-.94-.46L52.86,39.4a1.06,1.06,0,0,1,.27-1.53,1.19,1.19,0,0,1,1.61.25l5.11,6.78a1.06,1.06,0,0,1-.27,1.53,1.2,1.2,0,0,1-.67.2"/><circle class="cls-2" cx="40.25" cy="40.25" r="40"/><path class="cls-1" d="M15.67,50H64.83V25.36H15.67Zm50.6,2.73h-52a1.4,1.4,0,0,1-1.44-1.36V24a1.4,1.4,0,0,1,1.44-1.36h52A1.4,1.4,0,0,1,67.71,24V51.34a1.4,1.4,0,0,1-1.44,1.36"/><path class="cls-1" d="M69.57,57.87H10.93a1.31,1.31,0,1,1,0-2.61H69.57a1.31,1.31,0,1,1,0,2.61"/><polygon class="cls-1" points="51.59 45.08 50.48 34.26 60.9 38.75 55.19 40.51 51.59 45.08"/></g></g></svg>