<svg xmlns="http://www.w3.org/2000/svg" viewBox="0 0 46.31 43.3"><defs><style>.cls-1{fill:#0080c9;}</style></defs><title>frame</title><g id="Layer_2" data-name="Layer 2"><g id="Calque_1" data-name="Calque 1"><path class="cls-1" d="M34.35,8,23.15,1.34,12,8,11.32,7,22.83.09a.61.61,0,0,1,.64,0L35,7Z"/><path class="cls-1" d="M1.24,42.07H45.07V7.89H1.24ZM45.69,43.3H.62A.61.61,0,0,1,0,42.69V7.28a.62.62,0,0,1,.62-.62H45.69a.62.62,0,0,1,.62.62V42.69a.61.61,0,0,1-.62.61"/><path class="cls-1" d="M41.16,38.34h-.07v-.62h-.54V12.86H5.84V34.45H4.6V12.24a.62.62,0,0,1,.62-.62H41.16a.62.62,0,0,1,.62.62V37.72a.62.62,0,0,1-.62.62"/><rect class="cls-1" x="40.07" y="9.14" width="6.72" height="1.24" transform="translate(6.96 35.28) rotate(-47.65)"/><rect class="cls-1" x="42.81" y="36.85" width="1.24" height="6.72" transform="translate(-15.75 39.74) rotate(-42.35)"/><rect class="cls-1" x="-0.46" y="39.59" width="6.77" height="1.24" transform="translate(-28.56 15.02) rotate(-47.18)"/><rect class="cls-1" x="2.3" y="6.37" width="1.24" height="6.77" transform="translate(-5.86 4.59) rotate(-42.83)"/><path class="cls-1" d="M5.22,11.62H5.3v.62h.54V37.1H40.55V15.51h1.23V37.72a.62.62,0,0,1-.62.62H5.22a.62.62,0,0,1-.62-.62V12.24a.62.62,0,0,1,.62-.62"/></g></g></svg>