<svg xmlns="http://www.w3.org/2000/svg" viewBox="0 0 48.65 36.24"><defs><style>.cls-1{fill:#3c3c3b;}.cls-2{fill:none;stroke:#3c3c3b;stroke-miterlimit:10;stroke-width:0.75px;}</style></defs><title>handshake</title><g id="Layer_2" data-name="Layer 2"><g id="Calque_1" data-name="Calque 1"><path class="cls-1" d="M44.72,16.1,36.39,6.54A12.29,12.29,0,0,1,31,5.83a6.87,6.87,0,0,0-6,.91,8.84,8.84,0,0,0-.88.74l-6.32,6a1.35,1.35,0,0,0-.15,1.77,1.28,1.28,0,0,0,.12.15l.28.3a1.36,1.36,0,0,0,.95.41,1.29,1.29,0,0,0,1-.37l.69-.66L24,12a2.2,2.2,0,0,1,3.08,0l11.71,11.7h0l.25.24a14,14,0,0,0,3.4-4.69,8.44,8.44,0,0,1,2.26-3.17M38.27,25l-.34-.34h0L26.21,12.9a.93.93,0,0,0-1.32,0c-1,1-2.45,2.35-3.31,3.16l-.68.66a2.63,2.63,0,0,1-1.86.72,2.59,2.59,0,0,1-1.83-.81l-.29-.3c-.09-.11-.17-.2-.24-.3A2.6,2.6,0,0,1,17,12.61l6.33-6h0a6.85,6.85,0,0,0-5.68-.74L17.23,6a11.22,11.22,0,0,1-4.93.58L4.21,15.82a18.75,18.75,0,0,1,.94,1.8c.17.36.35.74.55,1.13a13.9,13.9,0,0,0,2.54,3.66c.41.4.46.44,1.3,1.17l.2.16.14-.14a2.82,2.82,0,0,1,4,0,2.76,2.76,0,0,1,.76,1.4l.13-.13a2.81,2.81,0,0,1,4.8,1.8,2.7,2.7,0,0,1,.94-.17,2.82,2.82,0,0,1,2,.82,2.78,2.78,0,0,1,.8,1.8,2.9,2.9,0,0,1,2.53.27l0,0h0a4.68,4.68,0,0,1,.37.31.31.31,0,0,1,.09.07l2.41,2.41a1.57,1.57,0,0,0,2.67-1.11A1.51,1.51,0,0,0,31,30l-2.1-2.11-2-2a.62.62,0,0,1,0-.89.61.61,0,0,1,.88,0l4.07,4.07.07.06a1.56,1.56,0,0,0,2.38-2l-4.22-4.25a.47.47,0,0,1-.06-.09.29.29,0,0,1-.07-.12.38.38,0,0,1,0-.1.69.69,0,0,1,0-.13.5.5,0,0,1,0-.13.2.2,0,0,1,0-.11.41.41,0,0,1,.07-.11l.06-.1h0l.11-.07.1-.06a.61.61,0,0,1,.13,0l.11,0,.11,0a.61.61,0,0,1,.13,0,.3.3,0,0,1,.1.07A.53.53,0,0,1,31,22l4.05,4,.17.21.87.87a1.6,1.6,0,0,0,2.21,0,1.56,1.56,0,0,0,0-2.21M25.56,30.87a1.43,1.43,0,0,0-.4-.4l0,0a1.55,1.55,0,0,0-.84-.24,1.57,1.57,0,0,0-1.11.45l-.67.67h0l-.63.63-.15.19a1.57,1.57,0,0,0,.16,2,1.61,1.61,0,0,0,2,.18,1.55,1.55,0,0,0,.23-.19l1.29-1.29a1.56,1.56,0,0,0,.18-2m-3.95-.44a1.56,1.56,0,0,0,0-2.21,1.58,1.58,0,0,0-1.11-.45,1.54,1.54,0,0,0-1.1.45L17.82,29.8,16.64,31a1.58,1.58,0,0,0,0,2.21,1.63,1.63,0,0,0,2.22,0L21,31.08h0Zm-5.86-.35,1.18-1.17.93-.93a1.55,1.55,0,0,0,.46-1.11,1.57,1.57,0,0,0-1.56-1.56,1.55,1.55,0,0,0-1.11.46l-1.58,1.58-.2.25-.35.34-.13.11a1.53,1.53,0,0,0-.37,1,1.51,1.51,0,0,0,.46,1.1,1.6,1.6,0,0,0,2.21,0l.06-.06h0m-3.16-3,.58-.58a1.58,1.58,0,0,0,.26-.87A1.55,1.55,0,0,0,11.87,24a1.51,1.51,0,0,0-1.1.46l-.35.34a1.56,1.56,0,0,0,0,2.21,1.61,1.61,0,0,0,2.08.11l.09-.11M48.06,15.58l-1.68,1.47a.61.61,0,0,1-.41.15h0a.65.65,0,0,1-.36-.16,7,7,0,0,0-2,2.79A15.26,15.26,0,0,1,39.78,25a2.81,2.81,0,0,1-4,3.52A2.76,2.76,0,0,1,35,30.07a2.81,2.81,0,0,1-2,.83,2.45,2.45,0,0,1-.38,0,2.76,2.76,0,0,1-.8,2.25,2.84,2.84,0,0,1-4,0L27,32.28a2.8,2.8,0,0,1-.77,1.47L25,35a2.75,2.75,0,0,1-.43.35,2.78,2.78,0,0,1-1.56.47,2.84,2.84,0,0,1-2-.81,2.76,2.76,0,0,1-.76-1.46l-.48.49A2.81,2.81,0,0,1,15,31.83a2.21,2.21,0,0,1-.37,0,2.83,2.83,0,0,1-2.82-2.82,3,3,0,0,1,0-.31,2.3,2.3,0,0,1-.26,0,2.81,2.81,0,0,1-2.54-4l-.06,0-.21-.18c-.84-.72-.93-.79-1.37-1.23a15.25,15.25,0,0,1-2.78-4c-.2-.4-.38-.79-.56-1.16s-.45-.95-.68-1.35l-.17.2a.6.6,0,0,1-.47.22.66.66,0,0,1-.42-.15L.59,15.61a.63.63,0,1,1,.83-.95l1.2,1.05L11.46,5.58a.06.06,0,0,1,0,0,.7.7,0,0,1,.2-.22L7.29,1.51A.63.63,0,1,1,8.12.56L13,4.79a.66.66,0,0,1,.21.44.32.32,0,0,1,0,.13,13.16,13.16,0,0,0,3.73-.63l.37-.1a8.13,8.13,0,0,1,7.07,1.09h0a8.15,8.15,0,0,1,7.06-1.1,14.13,14.13,0,0,0,4.08.74.65.65,0,0,1,.19-.6L40.53.53a.63.63,0,0,1,.83,1L37,5.3a.55.55,0,0,1,.25.29L46,15.68l1.2-1a.63.63,0,0,1,.83.95M2.9,13a1.2,1.2,0,1,0-1.68-.29A1.2,1.2,0,0,0,2.9,13m42.55-1.71a1.21,1.21,0,1,1,.3,1.68,1.21,1.21,0,0,1-.3-1.68"/><path class="cls-2" d="M44.72,16.1,36.39,6.54A12.29,12.29,0,0,1,31,5.83a6.87,6.87,0,0,0-6,.91,8.84,8.84,0,0,0-.88.74l-6.32,6a1.35,1.35,0,0,0-.15,1.77,1.28,1.28,0,0,0,.12.15l.28.3a1.36,1.36,0,0,0,.95.41,1.29,1.29,0,0,0,1-.37l.69-.66L24,12a2.2,2.2,0,0,1,3.08,0l11.71,11.7h0l.25.24a14,14,0,0,0,3.4-4.69A8.44,8.44,0,0,1,44.72,16.1ZM38.27,25l-.34-.34h0L26.21,12.9a.93.93,0,0,0-1.32,0c-1,1-2.45,2.35-3.31,3.16l-.68.66a2.63,2.63,0,0,1-1.86.72,2.59,2.59,0,0,1-1.83-.81l-.29-.3c-.09-.11-.17-.2-.24-.3A2.6,2.6,0,0,1,17,12.61l6.33-6h0a6.85,6.85,0,0,0-5.68-.74L17.23,6a11.22,11.22,0,0,1-4.93.58L4.21,15.82a18.75,18.75,0,0,1,.94,1.8c.17.36.35.74.55,1.13a13.9,13.9,0,0,0,2.54,3.66c.41.4.46.44,1.3,1.17l.2.16.14-.14a2.82,2.82,0,0,1,4,0,2.76,2.76,0,0,1,.76,1.4l.13-.13a2.81,2.81,0,0,1,4.8,1.8,2.7,2.7,0,0,1,.94-.17,2.82,2.82,0,0,1,2,.82,2.78,2.78,0,0,1,.8,1.8,2.9,2.9,0,0,1,2.53.27l0,0h0a4.68,4.68,0,0,1,.37.31.31.31,0,0,1,.09.07l2.41,2.41a1.57,1.57,0,0,0,2.67-1.11A1.51,1.51,0,0,0,31,30l-2.1-2.11-2-2a.62.62,0,0,1,0-.89.61.61,0,0,1,.88,0l4.07,4.07.07.06a1.56,1.56,0,0,0,2.38-2l-4.22-4.25a.47.47,0,0,1-.06-.09.29.29,0,0,1-.07-.12.38.38,0,0,1,0-.1.69.69,0,0,1,0-.13.5.5,0,0,1,0-.13.2.2,0,0,1,0-.11.41.41,0,0,1,.07-.11l.06-.1h0l.11-.07.1-.06a.61.61,0,0,1,.13,0l.11,0,.11,0a.61.61,0,0,1,.13,0,.3.3,0,0,1,.1.07A.53.53,0,0,1,31,22l4.05,4,.17.21.87.87a1.6,1.6,0,0,0,2.21,0A1.56,1.56,0,0,0,38.27,25ZM25.56,30.87a1.43,1.43,0,0,0-.4-.4l0,0a1.55,1.55,0,0,0-.84-.24,1.57,1.57,0,0,0-1.11.45l-.67.67h0l-.63.63-.15.19a1.57,1.57,0,0,0,.16,2,1.61,1.61,0,0,0,2,.18,1.55,1.55,0,0,0,.23-.19l1.29-1.29A1.56,1.56,0,0,0,25.56,30.87Zm-3.95-.44a1.56,1.56,0,0,0,0-2.21,1.58,1.58,0,0,0-1.11-.45,1.54,1.54,0,0,0-1.1.45L17.82,29.8,16.64,31a1.58,1.58,0,0,0,0,2.21,1.63,1.63,0,0,0,2.22,0L21,31.08h0Zm-5.86-.35,1.18-1.17.93-.93a1.55,1.55,0,0,0,.46-1.11,1.57,1.57,0,0,0-1.56-1.56,1.55,1.55,0,0,0-1.11.46l-1.58,1.58-.2.25-.35.34-.13.11a1.53,1.53,0,0,0-.37,1,1.51,1.51,0,0,0,.46,1.1,1.6,1.6,0,0,0,2.21,0l.06-.06Zm-3.16-3,.58-.58a1.58,1.58,0,0,0,.26-.87A1.55,1.55,0,0,0,11.87,24a1.51,1.51,0,0,0-1.1.46l-.35.34a1.56,1.56,0,0,0,0,2.21,1.61,1.61,0,0,0,2.08.11ZM48.06,15.58l-1.68,1.47a.61.61,0,0,1-.41.15h0a.65.65,0,0,1-.36-.16,7,7,0,0,0-2,2.79A15.26,15.26,0,0,1,39.78,25a2.81,2.81,0,0,1-4,3.52A2.76,2.76,0,0,1,35,30.07a2.81,2.81,0,0,1-2,.83,2.45,2.45,0,0,1-.38,0,2.76,2.76,0,0,1-.8,2.25,2.84,2.84,0,0,1-4,0L27,32.28a2.8,2.8,0,0,1-.77,1.47L25,35a2.75,2.75,0,0,1-.43.35,2.78,2.78,0,0,1-1.56.47,2.84,2.84,0,0,1-2-.81,2.76,2.76,0,0,1-.76-1.46l-.48.49A2.81,2.81,0,0,1,15,31.83a2.21,2.21,0,0,1-.37,0,2.83,2.83,0,0,1-2.82-2.82,3,3,0,0,1,0-.31,2.3,2.3,0,0,1-.26,0,2.81,2.81,0,0,1-2.54-4l-.06,0-.21-.18c-.84-.72-.93-.79-1.37-1.23a15.25,15.25,0,0,1-2.78-4c-.2-.4-.38-.79-.56-1.16s-.45-.95-.68-1.35l-.17.2a.6.6,0,0,1-.47.22.66.66,0,0,1-.42-.15L.59,15.61a.63.63,0,1,1,.83-.95l1.2,1.05L11.46,5.58a.06.06,0,0,1,0,0,.7.7,0,0,1,.2-.22L7.29,1.51A.63.63,0,1,1,8.12.56L13,4.79a.66.66,0,0,1,.21.44.32.32,0,0,1,0,.13,13.16,13.16,0,0,0,3.73-.63l.37-.1a8.13,8.13,0,0,1,7.07,1.09h0a8.15,8.15,0,0,1,7.06-1.1,14.13,14.13,0,0,0,4.08.74.65.65,0,0,1,.19-.6L40.53.53a.63.63,0,0,1,.83,1L37,5.3a.55.55,0,0,1,.25.29L46,15.68l1.2-1a.63.63,0,0,1,.83.95ZM2.9,13a1.2,1.2,0,1,0-1.68-.29A1.2,1.2,0,0,0,2.9,13Zm42.55-1.71a1.21,1.21,0,1,1,.3,1.68A1.21,1.21,0,0,1,45.45,11.33Z"/></g></g></svg>