<svg xmlns="http://www.w3.org/2000/svg" viewBox="0 0 52.1 38.61"><defs><style>.cls-1{fill:none;stroke:#0080c9;stroke-miterlimit:10;}</style></defs><title>hand</title><g id="Layer_2" data-name="Layer 2"><g id="Calque_1" data-name="Calque 1"><path class="cls-1" d="M.93,23.94a25.44,25.44,0,0,1,7.7,3.18,31.57,31.57,0,0,0,10.85,5.11c.77.22,1.5.43,2.14.66l1.44.51c2,.69,4.64,1.64,7.23,2.65.67.27,1.32.56,2,.83,2.65,1.16,5.31,1.85,6.24.45a1.05,1.05,0,0,0,.2-.92c-.31-1.11-2.44-1.95-5.9-3.21-2.08-.75-4.67-1.69-5-2.38l0-.1c.43-.27,3.2.74,5.22,1.48l2.14.77c5.75,2.07,10.24,3.56,11.4,2.4l.22-.34a1.63,1.63,0,0,0-.07-1.35c-1-2-6-3.34-10.47-4.56-2.75-.75-6.17-1.68-6.37-2.41.34-.34,3.12-.18,9.38,1.66,5.38,1.56,10.56,2.82,12,1.4a1.33,1.33,0,0,0,.38-1c-.06-2.08-4.69-3.16-9.58-4.3l-2.38-.57c-6.55-1.63-7.72-2.61-7.91-3l0-.1.12-.21c.57-.57,2.81.06,4.78.62l1.41.4c4.84,1.37,8.65,2.32,9.93,1a1.52,1.52,0,0,0,.43-1.16c-.08-2.1-4.49-3.19-9.6-4.45-2.32-.58-4.71-1.17-6.68-1.87l-.26-.09c-2.31-.81-5.79-2-6.93-3.71-.18-.25-.28-.55.23-1.06a11.37,11.37,0,0,1,2.6-1.62,11.9,11.9,0,0,0,2.54-1.59l.09-.08c1.2-1.21,2.54-3.65,2.52-5.23A1.49,1.49,0,0,0,32.46.67C32,.2,30.89.74,28.35,2.12,27.25,2.72,26,3.4,24.71,4a40.14,40.14,0,0,1-6.43,2.21l-.7.19a21.19,21.19,0,0,0-5.25,2.47c-.56.34-1,.63-1.48.85-1.16.57-3.12.59-6,0L4.5,9.7.61,23.85ZM35.41,37.33c-.67-.15-.06-2.32.68-2,.42.17,1.88.46,1.59,1.55m6-1.76c-.76-.16-.17-2.63.7-2.36.52.16,1.92.67,1.62,1.75m2.56-4.73c-.93-.22-.57-2.91.59-2.6.46.12,1.86.59,1.66,1.69m-5.51-6.37c-.67-.06-.23-2.8.6-2.4.26.13,1.89.53,1.68,1.64"/></g></g></svg>