<svg xmlns="http://www.w3.org/2000/svg" xmlns:xlink="http://www.w3.org/1999/xlink" viewBox="0 0 33.85 37.61"><defs><style>.cls-1{fill:none;}.cls-2{fill:#3c3c3b;}.cls-3{fill:#df5a51;}.cls-4{fill:#ec9d8e;}.cls-5{opacity:0.25;}.cls-6{clip-path:url(#clip-path);}.cls-7{fill:#16262e;}</style><clipPath id="clip-path"><rect class="cls-1" x="8.46" y="4.13" width="26.21" height="21.07"/></clipPath></defs><title>interrogation</title><g id="Layer_2" data-name="Layer 2"><g id="Calque_1" data-name="Calque 1"><path class="cls-2" d="M6.45,29.18a3.77,3.77,0,0,0,4,4,3.77,3.77,0,0,0,4-4,3.77,3.77,0,0,0-4-4,3.77,3.77,0,0,0-3.95,4m5.7-7a1.43,1.43,0,0,0,1.43-1.42V19.38c0-3.78,7.36-4.1,7.36-10.87C20.94,4,17.63,0,10.5,0,4.42,0,.51,3.13,0,9.3a1,1,0,0,0,1,1H5A1.12,1.12,0,0,0,6,9.3C6.4,7.09,7.6,5.8,10.59,5.8c1.61,0,3.82.69,3.82,2.71,0,4.33-7.32,3.92-7.32,10.87v1.38a1.43,1.43,0,0,0,1.43,1.42Z"/><path class="cls-3" d="M15.05,20.44a9.45,9.45,0,0,1-.42-2.78,9.37,9.37,0,1,1,11,9.21h0l-.4.07-.37,0a3,3,0,0,1-.43,0L24,27l-.48,0-.46,0H23l-.34,0-.36-.06a9.36,9.36,0,0,1-5.41-3.14,9.23,9.23,0,0,1-1.82-3.29M25.67,24a6.54,6.54,0,0,0,0-12.64A6.67,6.67,0,0,0,24,11.13,6.54,6.54,0,0,0,24,24.2,6.67,6.67,0,0,0,25.67,24"/><path class="cls-3" d="M25.67,32.65v2.77a1.7,1.7,0,1,1-3.39,0V32.67h3.39v0Z"/><rect class="cls-4" x="22.28" y="30.27" width="3.38" height="2.38"/><path class="cls-3" d="M25.67,26.87v3.4H22.28v-3.4l.36.06L23,27h.07l.46,0L24,27l.47,0a3,3,0,0,0,.43,0l.37,0,.4-.07Z"/><g class="cls-5"><g class="cls-6"><path class="cls-3" d="M25.67,11.35V24A6.67,6.67,0,0,1,24,24.2a6.54,6.54,0,0,1,0-13.07,6.67,6.67,0,0,1,1.68.21Z"/></g></g><path class="cls-2" d="M22.78,30.27h-1V26.93s0-.06,0-.07a.49.49,0,0,1,.59-.48l.22,0,.12,0,.31,0-.11,1L23,27l-.06.49h-.14Z"/><path class="cls-7" d="M24,27.52h-.51l-.48,0,.11-1,.42,0a6.75,6.75,0,0,0,.9,0l.07,1H24"/><path class="cls-7" d="M24.94,27.48l-.11-1,.35,0,.4-.07.17,1-.43.07-.38.05"/><path class="cls-2" d="M26.17,30.27h-1V27l1-.21a1.1,1.1,0,0,1,0,.16Z"/><path class="cls-2" d="M22.78,30.77v4.65A1.19,1.19,0,0,0,24,36.62v0a1.2,1.2,0,0,0,1.2-1.2V30.77ZM24,37.61a2.2,2.2,0,0,1-2.19-2.19V30.27a.51.51,0,0,1,.5-.5h3.39a.51.51,0,0,1,.5.5v5.15A2.19,2.19,0,0,1,24,37.61Z"/><path class="cls-2" d="M24,8.8a8.86,8.86,0,0,0-8.86,8.86,8.87,8.87,0,0,0,2.11,5.75,8.89,8.89,0,0,0,5.13,3l.33.05a2,2,0,0,0,.32,0h.09l.42,0a6.75,6.75,0,0,0,.9,0l.41,0,.34,0,.37-.06h.06a8.87,8.87,0,0,0,0-17.44A9.13,9.13,0,0,0,24,8.8m0,18.72h-.51l-.46,0h-.11l-.36,0-.37-.07a9.76,9.76,0,0,1-5.69-3.3,9.88,9.88,0,0,1-2.36-6.39A9.88,9.88,0,0,1,24,7.8,10.22,10.22,0,0,1,25.76,8a9.86,9.86,0,0,1,0,19.4h0a3,3,0,0,1-.43.06l-.38.05-.44,0H24"/><path class="cls-2" d="M24,11.62A6,6,0,0,0,24,23.7a6.28,6.28,0,0,0,1.55-.2,6,6,0,0,0,0-11.68,6.28,6.28,0,0,0-1.55-.2m0,13.07a7,7,0,1,1,0-14.06,7.28,7.28,0,0,1,1.8.23,7,7,0,0,1,0,13.6,6.84,6.84,0,0,1-1.8.23"/><path class="cls-2" d="M21.94,14.63l-.56-.82A4.73,4.73,0,0,1,23,13.12l.22,1a3.6,3.6,0,0,0-1.24.54"/><path class="cls-2" d="M21.08,21.3a4.66,4.66,0,0,1-1.74-3.64,4.61,4.61,0,0,1,1.32-3.25l.71.7a3.66,3.66,0,0,0,.33,5.41Z"/><rect class="cls-2" x="22.28" y="32.15" width="3.39" height="1"/></g></g></svg>