<svg xmlns="http://www.w3.org/2000/svg" viewBox="0 0 64.41 64.41"><defs><style>.cls-1{fill:#0080C9;}</style></defs><title>logo</title><g id="Layer_2" data-name="Layer 2"><g id="Calque_1" data-name="Calque 1"><path class="cls-1" d="M0,0V64.41H64.41V0ZM27.33,53c-1.45,0-6.26,0-9.7,0H10.92a2.16,2.16,0,0,1-2.19-2.13V32.24h0V13.15A2.15,2.15,0,0,1,10.9,11h6.72c3.44,0,8.24,0,9.69,0v2.16H23.49a1.93,1.93,0,0,0-2,1.89V31.77h0V49a1.93,1.93,0,0,0,1.95,1.9h3.83Zm9.28,0H29.9a2.66,2.66,0,0,1-.28,0V50.87c10.53-.43,14.16-4.8,14.16-18.32S40.11,13.67,29.62,13.13V11l.28,0h6.71c13.36,0,19,5.57,19,21.59S50,53,36.61,53Z"/></g></g></svg>