<svg xmlns="http://www.w3.org/2000/svg" viewBox="0 0 48.96 35.22"><defs><style>.cls-1{fill:#3c3c3b;}</style></defs><title>pen</title><g id="Layer_2" data-name="Layer 2"><g id="Calque_1" data-name="Calque 1"><path class="cls-1" d="M48.48,4.73c-.25,0-.74.24-.74.48l-3,11.07,1.22.26L49,5.46c0-.25,0-.73-.48-.73m-13,28s2-1.7,3.41-3.18l-4.88-1.23a42.17,42.17,0,0,0,1.47,4.42Zm-1.47-1.23h-.49c-1.2,0-2.42.26-7.28.26a2.26,2.26,0,0,1-1.53-.73,3.49,3.49,0,0,0-2.17-1c-.74,0-1.47.5-3.18,1.23A18.33,18.33,0,0,1,17,32.51a2.33,2.33,0,0,1,.23-1.22,3.73,3.73,0,0,0,0-2.45.86.86,0,0,0-.72-.24c-1.47,0-2.94,1.71-4.63,3.19-1,1-2.2,2.2-2.7,2.2-.47-.73,1.22-4.16,1.72-5.64,1-2.49,1.47-3,.74-3.47-.25-.25-.49-.25-1.24,0a15.79,15.79,0,0,0-3.15,3C5,29.83,2.79,32,1.08,31.29c-.23-.23-.73,0-1,.25s0,.73.25,1c2.45,1.23,4.87-1.22,7.59-3.67.74-.49,1.21-1.23,2-1.71-.25.24-.25.48-.5.74C7.94,31.06,7,33.5,7.71,34.73a1.22,1.22,0,0,0,1,.49c1,0,2.21-1.23,3.68-2.71,1.2-1.22,2.42-2.45,3.41-2.68a2.79,2.79,0,0,1-.24,1.23,3.84,3.84,0,0,0,0,2.44c.24.24.47.49.73.49a6.62,6.62,0,0,0,3.16-1.48,11.24,11.24,0,0,1,2.44-1.22,2.13,2.13,0,0,1,1.47.74,3.09,3.09,0,0,0,2.19,1c5.15,0,6.13,0,7.58-.24h.48c.26,0,.49-.25.49-.73s.49-.49,0-.49ZM44.79,3l.28-1.22A1.4,1.4,0,0,0,44,.07a1.37,1.37,0,0,0-1.69,1L42.1,2.27c-1.45-.25-2.69,0-2.93.73L33.33,25.38l7.55,2L46.79,5c.23-.5-.55-1.47-2-2"/></g></g></svg>