<svg xmlns="http://www.w3.org/2000/svg" viewBox="0 0 25.47 44.97"><defs><style>.cls-1{fill:#0080c9;}.cls-2{fill:#fff;}</style></defs><title>phone</title><g id="Layer_2" data-name="Layer 2"><g id="Calque_1" data-name="Calque 1"><path class="cls-1" d="M24.88,37.73v4.35a2.31,2.31,0,0,1-2.3,2.31H2.89a2.31,2.31,0,0,1-2.3-2.31V37.73Z"/><path class="cls-1" d="M24.88,2.89V6.48H.59V2.89A2.3,2.3,0,0,1,2.89.59H22.58a2.3,2.3,0,0,1,2.3,2.3"/><path class="cls-1" d="M22.58,45H2.89A2.89,2.89,0,0,1,0,42.08V37.73H1.17v4.35A1.72,1.72,0,0,0,2.89,43.8H22.58a1.72,1.72,0,0,0,1.72-1.72V37.73h1.17v4.35A2.89,2.89,0,0,1,22.58,45"/><path class="cls-1" d="M25.47,6.48H24.3V2.89a1.73,1.73,0,0,0-1.72-1.72H2.89A1.73,1.73,0,0,0,1.17,2.89V6.48H0V2.89A2.9,2.9,0,0,1,2.89,0H22.58a2.9,2.9,0,0,1,2.89,2.89Z"/><path class="cls-1" d="M24.88,38.32H.59A.59.59,0,0,1,0,37.73V6.48a.59.59,0,0,1,.59-.59v.59h.57V37.14H24.3V12.22h1.17V37.73a.59.59,0,0,1-.59.59"/><path class="cls-1" d="M.59,6.17H24.88a.58.58,0,0,1,.59.59V38a.58.58,0,0,1-.59.59V38H24.3V7.34H1.18V32.27H0V6.76a.58.58,0,0,1,.59-.59"/><rect class="cls-2" x="10.28" y="40.53" width="4.9" height="1.17"/><rect class="cls-2" x="10.03" y="3.06" width="1.57" height="1.17"/><rect class="cls-2" x="12.48" y="3.06" width="4.27" height="1.17"/></g></g></svg>