<svg xmlns="http://www.w3.org/2000/svg" viewBox="0 0 37.35 24"><defs><style>.cls-1{fill:#0080c9;}</style></defs><title>Fichier 1</title><g id="Calque_2" data-name="Calque 2"><g id="Calque_1-2" data-name="Calque 1"><path class="cls-1" d="M15.9,16.42c0,5-4.59,7.58-7.79,7.58A8.64,8.64,0,0,1,0,15.38C0,6.81,7,.62,12.06,0c.37.62.85,1.56.85,1.56-2.24.88-8.43,5-8.75,8.73,1.71-1,2.44-1.56,4.48-1.56,4.27,0,7.26,3.84,7.26,7.69m21.45,0c0,5-4.59,7.58-7.79,7.58a8.64,8.64,0,0,1-8.11-8.62c0-8.57,7-14.75,12.06-15.38.37.62.85,1.56.85,1.56-2.24.88-8.43,5-8.75,8.73,1.71-1,2.44-1.56,4.48-1.56,4.27,0,7.26,3.84,7.26,7.69"/></g></g></svg>