<svg xmlns="http://www.w3.org/2000/svg" viewBox="0 0 44.1 34.03"><defs><style>.cls-1{fill:#3c3c3b;}</style></defs><title>scale</title><g id="Layer_2" data-name="Layer 2"><g id="Calque_1" data-name="Calque 1"><path class="cls-1" d="M36.2,4.42,41.06,16.2H31.33Zm-28.3,0L12.77,16.2H3Zm36.2,13h0c0-.05,0-.09,0-.14A1.3,1.3,0,0,0,44,17h0L38,2.46h2.77A1.22,1.22,0,0,0,42,1.23,1.22,1.22,0,0,0,40.79,0H3.3A1.22,1.22,0,0,0,2.09,1.23,1.22,1.22,0,0,0,3.3,2.46H6.08L.09,17h0a1.16,1.16,0,0,0-.08.42s0,0,0,.05,0,.07,0,.11H0A8,8,0,0,0,7.9,25.44a8,8,0,0,0,7.9-8h0c0-.05,0-.09,0-.14A1,1,0,0,0,15.7,17h0l-6-14.49H20.83V31.58H13.36a1.23,1.23,0,0,0,0,2.45H30.74a1.23,1.23,0,0,0,0-2.45H23.26V2.46H34.37L28.39,17a1.27,1.27,0,0,0-.09.43v.16h0a7.9,7.9,0,1,0,15.8-.11Z"/></g></g></svg>