<svg xmlns="http://www.w3.org/2000/svg" viewBox="0 0 288.44 47.72"><defs><style>.cls-1{fill:#fff;}</style></defs><title>Asset 4</title><g id="Layer_2" data-name="Layer 2"><g id="Calque_1" data-name="Calque 1"><path class="cls-1" d="M76.08,45.3A2,2,0,0,1,74.89,45a6.14,6.14,0,0,1-1.33-1.75c-.51-.89-1.08-1.83-1.63-2.63l-.22,0-.42,0v.8c0,.4,0,.81,0,1.22a4.38,4.38,0,0,0,.15,1.47,1,1,0,0,0,.92.63v.42H72c-.39,0-.93,0-1.64,0s-1.24,0-1.63,0H68.4v-.42a1,1,0,0,0,.74-.3,1.43,1.43,0,0,0,.3-.81,19.49,19.49,0,0,0,.06-2.21V38.9a11,11,0,0,0-.16-2.71c-.11-.4-.42-.57-.93-.63v-.42c.3,0,.6,0,.9,0,.79,0,1,0,2,0l1.64,0a3.52,3.52,0,0,1,2.16.51,2.49,2.49,0,0,1,.95,2,3,3,0,0,1-2.2,2.76,26.42,26.42,0,0,1,1.55,2.27,11.41,11.41,0,0,0,1.34,1.81,1.1,1.1,0,0,0,.63.37v.42a5.4,5.4,0,0,1-1.25.12m-3.87-9.42a3.94,3.94,0,0,0-.9.12c0,.89,0,2.5,0,3.75a4.71,4.71,0,0,0,.67,0A1.89,1.89,0,0,0,74,37.85,1.83,1.83,0,0,0,72.21,35.88Z"/><path class="cls-1" d="M81,36.08l-.58-.35,1.23-1.82,1.43.26L81,36.08M83.8,45c-.11.19-.24.22-.92.22-.42,0-.84,0-1.26,0-.6,0-1.19,0-1.79,0s-1.19,0-1.79,0v-.35a.87.87,0,0,0,.86-.92c0-.37,0-.77,0-1.42V39a3.34,3.34,0,0,0-.14-1.22.78.78,0,0,0-.76-.52v-.35h5.82c0,.36,0,.73,0,1.1s0,.58,0,.88h-.45c-.09-1-.5-1.22-2-1.22l-.93,0c0,.49,0,.65,0,1.37v1.44H81c1.29,0,1.69-.19,1.77-.86h.45c0,.2,0,.61,0,1.23s0,1,0,1.21h-.45c0-.71-.37-.88-1.66-.88h-.67c0,.78,0,1.57,0,2.35,0,.52.09.7.39.77a3.8,3.8,0,0,0,.86.06c1.34,0,1.82-.3,2.1-1.32l.49.1A8.26,8.26,0,0,1,83.8,45Z"/><path class="cls-1" d="M89,41.49h-.35l-.27-.64c1.17-.07,1.82-.64,1.82-1.59a1.61,1.61,0,0,0-1.63-1.7,2.44,2.44,0,0,0-.48.05c0,.77,0,1.54,0,2.31v2.18a6.74,6.74,0,0,0,.14,2.23.76.76,0,0,0,.76.52v.35h-.3c-.32,0-.77,0-1.37,0s-1,0-1.35,0h-.3v-.35a.87.87,0,0,0,.86-.92,18.16,18.16,0,0,0,0-1.83V39a3.34,3.34,0,0,0-.14-1.22.78.78,0,0,0-.76-.52v-.35a3.47,3.47,0,0,0,.57,0h.91c.64,0,1.27-.06,1.9-.06,1.77,0,2.82.87,2.82,2.32S90.62,41.49,89,41.49"/><path class="cls-1" d="M100.29,37.51a1.62,1.62,0,0,0-.23.93c0,.54,0,.94,0,1.72,0,.29,0,1.15,0,2a3,3,0,0,1-.5,1.91,3.14,3.14,0,0,1-2.76,1.26,3.27,3.27,0,0,1-1.94-.52,2.68,2.68,0,0,1-1.21-2.61c0-1.34,0-1.93,0-2.36a10.93,10.93,0,0,0-.07-1.92c-.08-.45-.31-.63-.83-.69v-.35h3.33v.35c-.39.05-.57.15-.7.36a1.94,1.94,0,0,0-.17,1c0,.78,0,1.56,0,2.34,0,2.14,0,2.55.44,3a1.84,1.84,0,0,0,1.4.58,1.88,1.88,0,0,0,1.89-1.26,7.24,7.24,0,0,0,.19-2.33V39.68c0-1.42,0-1.85-.17-2.06a.79.79,0,0,0-.65-.39v-.35c.5,0,.67,0,1.3,0s.81,0,1.3,0v.35a.83.83,0,0,0-.58.27"/><path class="cls-1" d="M107.93,44.6a3.77,3.77,0,0,1-2.51.59c-.67,0-1.36,0-2,0-.28,0-.79,0-1.13,0h-.15v-.35c.59,0,.81-.35.86-.92a16.48,16.48,0,0,0,0-1.83V39.73a6.72,6.72,0,0,0-.13-2,.81.81,0,0,0-.77-.52v-.35c.57,0,.91,0,1.71,0s1.8,0,2.52,0c1.14,0,2.19.55,2.19,1.84,0,1-.6,1.6-1.78,1.9a2.17,2.17,0,0,1,2,2.25,2,2,0,0,1-.83,1.73m-2.71-7.07-.67,0c0,.81,0,2.2,0,2.72l.54,0c1.22,0,1.92-.51,1.92-1.4S106.32,37.53,105.22,37.53Zm0,3.47c-.22,0-.44,0-.76,0,0,.34,0,.4,0,1v.73a4.47,4.47,0,0,0,.11,1.32c.1.31.4.46.92.46a1.49,1.49,0,0,0,1.65-1.63A1.78,1.78,0,0,0,105.26,41Z"/><path class="cls-1" d="M115.79,45c-.11.17-.26.21-.88.21l-.95,0c-.77,0-1.47,0-2.31,0-.64,0-1.06,0-1.45,0v-.35a.78.78,0,0,0,.61-.25c.22-.26.28-.58.28-1.49,0-.62,0-1.12,0-1.77V40a6.6,6.6,0,0,0-.14-2.24.79.79,0,0,0-.77-.52v-.35h3.44v.35c-.63,0-.91.34-1,.93a16.88,16.88,0,0,0,0,1.83v2.08c0,1.73,0,1.94.18,2.11s.4.2.93.2a2.66,2.66,0,0,0,1.37-.25,1.6,1.6,0,0,0,.74-1.08l.47.13a8.59,8.59,0,0,1-.51,1.83"/><path class="cls-1" d="M120.12,45.17c-.31,0-.77,0-1.35,0s-1,0-1.37,0h-.3v-.35c.58,0,.81-.35.85-.92a15.55,15.55,0,0,0,.05-1.83V40c0-.32,0-.66,0-1a3.36,3.36,0,0,0-.13-1.22c-.11-.32-.35-.47-.77-.52v-.35h3.32v.35a.89.89,0,0,0-.86.93c0,.36,0,.71,0,1.83v2.09a6.51,6.51,0,0,0,.14,2.23.75.75,0,0,0,.76.52v.35h-.3"/><path class="cls-1" d="M131.74,47.42a6.23,6.23,0,0,1-3-.85,14.43,14.43,0,0,1-1.91-1.32,5.23,5.23,0,0,1-1,.08,3.91,3.91,0,0,1-4.18-4.12,4.25,4.25,0,0,1,4.44-4.48,4,4,0,0,1,4.27,4.1,4.45,4.45,0,0,1-2.31,4c.45.22.89.47,1.33.74a5.8,5.8,0,0,0,3,1.09,3,3,0,0,0,1.43-.36l.16.44a3.84,3.84,0,0,1-2.21.65m-5.87-9.84c-1.51,0-2.6,1.27-2.6,3,0,2.16,1.29,3.87,2.91,3.87s2.61-1.29,2.61-3.1C128.79,39.26,127.52,37.58,125.87,37.58Z"/><path class="cls-1" d="M139,37.51a1.66,1.66,0,0,0-.22.93c0,.54,0,.94,0,1.72,0,.29,0,1.15,0,2a3,3,0,0,1-.5,1.91,3.14,3.14,0,0,1-2.76,1.26,3.28,3.28,0,0,1-1.94-.52,2.68,2.68,0,0,1-1.2-2.61c0-1.34,0-1.93,0-2.36a10.72,10.72,0,0,0-.08-1.92c-.07-.45-.31-.63-.83-.69v-.35h3.34v.35c-.39.05-.57.15-.7.36a1.91,1.91,0,0,0-.17,1c0,.78,0,1.56,0,2.34,0,2.14.05,2.55.44,3a1.85,1.85,0,0,0,1.41.58,1.88,1.88,0,0,0,1.89-1.26,7.38,7.38,0,0,0,.19-2.33V39.68c0-1.42,0-1.85-.17-2.06a.78.78,0,0,0-.65-.39v-.35c.5,0,.67,0,1.29,0s.8,0,1.3,0v.35a.84.84,0,0,0-.59.27"/><path class="cls-1" d="M146.59,45c-.11.19-.24.22-.92.22-.43,0-.83,0-1.25,0-.6,0-1.2,0-1.8,0s-1.19,0-1.79,0v-.35a.87.87,0,0,0,.86-.92c0-.37,0-.77,0-1.42V39a3.27,3.27,0,0,0-.14-1.22c-.11-.32-.33-.47-.76-.52v-.35h5.82c0,.36,0,.73,0,1.1s0,.58,0,.88h-.45c-.09-1-.5-1.22-2-1.22l-.93,0c0,.49,0,.65,0,1.37v1.44h.56c1.3,0,1.69-.19,1.76-.86H146c0,.2,0,.61,0,1.23s0,1,0,1.21h-.45c0-.71-.37-.88-1.65-.88h-.67c0,.78,0,1.57,0,2.35,0,.52.09.7.39.77a3.8,3.8,0,0,0,.86.06c1.34,0,1.82-.3,2.1-1.32l.49.1a8.34,8.34,0,0,1-.51,1.83"/><path class="cls-1" d="M158.09,37.56c0-1.08-.65-1.5-2.35-1.5-.35,0-.67,0-1.05,0,0,1,0,1.76,0,3.4l.8,0c1.4,0,1.82-.24,1.9-1.05h.54c0,.42,0,.86,0,1.28s0,1.13,0,1.68h-.54c-.1-.9-.45-1.08-2-1.08h-.67v1.69c0,.33,0,.69,0,1.08,0,.83.09,1.55,1.07,1.61v.42h-.36c-.38,0-.93,0-1.64,0s-1.26,0-1.65,0h-.36v-.42a1.06,1.06,0,0,0,1-1.11,22.12,22.12,0,0,0,0-2.21V37.67a4.09,4.09,0,0,0-.16-1.48.94.94,0,0,0-.92-.63v-.42h6.92c0,.29,0,.77,0,1.4a9.74,9.74,0,0,0,0,1h-.56"/><path class="cls-1" d="M166.42,45.28a1.59,1.59,0,0,1-1-.24,5,5,0,0,1-1.09-1.44c-.42-.73-.89-1.52-1.34-2.18h-.54v.66c0,.34,0,.67,0,1a3.61,3.61,0,0,0,.13,1.22.78.78,0,0,0,.76.52v.35h-.29c-.32,0-.77,0-1.36,0s-1,0-1.34,0h-.3v-.35a.8.8,0,0,0,.61-.25,1.15,1.15,0,0,0,.25-.67,14.72,14.72,0,0,0,.05-1.83V40a9.06,9.06,0,0,0-.14-2.24c-.09-.33-.35-.47-.77-.52v-.35a7.13,7.13,0,0,0,.75,0c.64,0,.84,0,1.62,0l1.35,0a2.91,2.91,0,0,1,1.78.42,2,2,0,0,1,.78,1.63,2.46,2.46,0,0,1-1.81,2.28A20.82,20.82,0,0,1,165.82,43a9.42,9.42,0,0,0,1.11,1.49.92.92,0,0,0,.52.31v.35a4.59,4.59,0,0,1-1,.1m-3.2-7.78a3.13,3.13,0,0,0-.75.1c0,.73,0,2.06,0,3.1a3.61,3.61,0,0,0,.55,0,1.56,1.56,0,0,0,1.71-1.61A1.52,1.52,0,0,0,163.22,37.5Z"/><path class="cls-1" d="M175.39,45.17c-.31,0-.76,0-1.33,0s-1,0-1.34,0h-.29v-.35c.4,0,.64-.23.64-.58a2.28,2.28,0,0,0-.16-.67c-.15-.46-.25-.77-.4-1.19h-2.39l-.25.72a4.8,4.8,0,0,0-.29,1.18c0,.36.16.52.56.55v.35c-.47,0-.64,0-1.24,0s-.76,0-1.23,0v-.35a.56.56,0,0,0,.38-.17,4.43,4.43,0,0,0,.85-1.59l1.18-3c.32-.81.81-2.11,1.14-3.17h.85c.12.38.37,1,.55,1.44l1.76,4.49a12.2,12.2,0,0,0,.67,1.49,1,1,0,0,0,.65.52v.35h-.3m-4-6.1c-.32.85-.77,1.94-1,2.55h1.84Z"/><path class="cls-1" d="M184.25,37.61a2,2,0,0,0-.19,1.08c0,1.12,0,2.86,0,3.69v1.9c0,.29,0,.72,0,.9h-.85c-.81-1.06-2.49-3.11-2.49-3.11l-2.53-3.12c0,.26,0,.1,0,.91v.81c0,.93,0,1.86,0,2.79a2.32,2.32,0,0,0,.2,1,.65.65,0,0,0,.67.36v.35c-.43,0-.88,0-1.32,0s-.89,0-1.33,0v-.35c.82,0,.85-.71.87-1.36s0-1,0-1.75V39.1c0-1,0-1.28-.24-1.55s-.29-.27-.66-.31v-.35c.41,0,.56,0,1.08,0s.66,0,1.07,0a13.86,13.86,0,0,0,1.24,1.57c1.22,1.48,2.31,2.74,3.34,4V39.77a9.48,9.48,0,0,0-.09-1.87.79.79,0,0,0-.78-.66v-.35c.51,0,.68,0,1.32,0s.81,0,1.32,0v.35a.69.69,0,0,0-.7.37"/><path class="cls-1" d="M192.93,44.88a6.22,6.22,0,0,1-2.5.45l-.11.5a1.21,1.21,0,0,1,.24,0,.74.74,0,0,1,.79.75c0,.67-.53,1.14-1.38,1.14a1.89,1.89,0,0,1-.75-.16l.17-.49a1.27,1.27,0,0,0,.45.1c.35,0,.58-.17.58-.49s-.13-.4-.31-.4a.46.46,0,0,0-.27.1l-.27-.07.25-1a3.8,3.8,0,0,1-2.56-1.16A4.33,4.33,0,0,1,186.06,41c0-2.69,1.73-4.3,4.58-4.3a7.81,7.81,0,0,1,2.41.36c0,.29,0,.57,0,.84s0,.66,0,.95h-.48a1.83,1.83,0,0,0-2-1.36c-1.75,0-2.82,1.17-2.82,3.11,0,2.24,1.26,3.87,3,3.87a2,2,0,0,0,2-1.52l.47.1a11.38,11.38,0,0,0-.27,1.79"/><path class="cls-1" d="M201.56,45.17c-.31,0-.76,0-1.33,0s-1,0-1.34,0h-.29v-.35c.4,0,.63-.23.63-.58a2.37,2.37,0,0,0-.16-.67c-.15-.46-.25-.77-.4-1.19h-2.39l-.25.72a4.73,4.73,0,0,0-.29,1.18c0,.36.16.52.56.55v.35c-.47,0-.65,0-1.24,0s-.76,0-1.23,0v-.35a.54.54,0,0,0,.38-.17,4.38,4.38,0,0,0,.85-1.59l1.18-3c.33-.81.81-2.11,1.15-3.17h.84c.12.38.37,1,.55,1.44l1.75,4.49a11.74,11.74,0,0,0,.67,1.49,1,1,0,0,0,.65.52v.35h-.3m-4-6.1c-.33.85-.77,1.94-1,2.55h1.84Z"/><path class="cls-1" d="M205.62,45.17c-.31,0-.77,0-1.36,0s-1,0-1.37,0h-.3v-.35c.59,0,.81-.35.86-.92a16.17,16.17,0,0,0,.05-1.83V40c0-.32,0-.66,0-1a3.42,3.42,0,0,0-.12-1.22c-.11-.32-.35-.47-.77-.52v-.35h3.32v.35a.89.89,0,0,0-.86.93c0,.36,0,.71,0,1.83v2.09a6.75,6.75,0,0,0,.13,2.23.76.76,0,0,0,.76.52v.35h-.3"/><path class="cls-1" d="M209.48,45.33a5.21,5.21,0,0,1-2.09-.42c0-.47-.13-1.19-.23-1.79l.47-.07a1.9,1.9,0,0,0,1.91,1.53c.88,0,1.48-.46,1.48-1.16s-.39-.94-.95-1.29l-1.3-.83A2.49,2.49,0,0,1,207.37,39c0-1.39,1.06-2.29,2.7-2.29a4.39,4.39,0,0,1,2,.45c0,.3,0,.4,0,.78s0,.57,0,.92h-.47A1.54,1.54,0,0,0,210,37.5a1.21,1.21,0,0,0-1.33,1.17c0,.6.41,1,1.07,1.42l1.06.68c1,.66,1.58,1.29,1.58,2.29,0,1.36-1.2,2.28-2.94,2.28"/><path class="cls-1" d="M219.48,45c-.11.19-.24.22-.92.22-.43,0-.84,0-1.26,0-.6,0-1.19,0-1.79,0s-1.19,0-1.79,0v-.35a.87.87,0,0,0,.85-.92,13.66,13.66,0,0,0,0-1.42V39a3.39,3.39,0,0,0-.14-1.22.78.78,0,0,0-.76-.52v-.35h5.82c0,.36,0,.73,0,1.1s0,.58,0,.88h-.45c-.09-1-.5-1.22-2-1.22l-.93,0c0,.49,0,.65,0,1.37v1.44h.56c1.29,0,1.69-.19,1.77-.86h.45c0,.2,0,.61,0,1.23s0,1,0,1.21h-.45c0-.71-.37-.88-1.65-.88h-.67c0,.78,0,1.57,0,2.35,0,.52.08.7.38.77a3.78,3.78,0,0,0,.86.06c1.34,0,1.82-.3,2.1-1.32l.49.1a8.16,8.16,0,0,1-.51,1.83"/><rect class="cls-1" x="0.03" y="38.96" width="61.61" height="3.83"/><rect class="cls-1" x="226.84" y="38.96" width="61.61" height="3.83"/><path class="cls-1" d="M0,24.72V1.09A.83.83,0,0,1,.83.22H8.72c5.54,0,9.73,4,9.73,10.17v5c0,6.15-4.2,10.21-9.7,10.21H.83A.82.82,0,0,1,0,24.72Zm3.87-2.86H8.76c3.11,0,5.75-2.32,5.75-6.51V10.46c0-4.2-2.64-6.55-5.79-6.55H3.87Z"/><path class="cls-1" d="M28.87,22.58a3.49,3.49,0,0,0,3.55-2.17,1,1,0,0,1,.87-.51H35.6a.55.55,0,0,1,.58.58,1.9,1.9,0,0,1-.14.62,7.44,7.44,0,0,1-7.17,4.81c-4.34,0-7.82-3.15-7.82-8.21V15.34c0-5.07,3.44-8.25,7.78-8.25s7.71,3.29,7.71,8.14v1.7a.85.85,0,0,1-.87.83H24.93v.51C24.93,20.88,26.63,22.58,28.87,22.58Zm3.87-8c0-2.64-1.66-4.2-3.91-4.2s-3.91,1.56-3.91,4.2V15h7.82Zm1-14a.52.52,0,0,1-.14.36L30.75,5.07a.77.77,0,0,1-.65.36H27.79c-.29,0-.4-.14-.4-.36a2.5,2.5,0,0,1,.18-.47l2-3.84a.93.93,0,0,1,.87-.54h2.89A.41.41,0,0,1,33.76.62Z"/><path class="cls-1" d="M48,10.89H44.47V24.72a.85.85,0,0,1-.87.83H41.39a.82.82,0,0,1-.83-.83V10.89h-2.5a.82.82,0,0,1-.83-.83V8.32a.83.83,0,0,1,.83-.87h2.5V6.7c0-4.78,1.81-6.48,6.33-6.48H48a.83.83,0,0,1,.83.87V2.86a.82.82,0,0,1-.83.83H46.89c-2,0-2.42.58-2.42,3v.8H48a.83.83,0,0,1,.83.87v1.74A.82.82,0,0,1,48,10.89Z"/><path class="cls-1" d="M58.21,22.58a3.49,3.49,0,0,0,3.55-2.17,1,1,0,0,1,.87-.51h2.32a.55.55,0,0,1,.58.58,1.9,1.9,0,0,1-.14.62,7.44,7.44,0,0,1-7.17,4.81c-4.34,0-7.82-3.15-7.82-8.21V15.34c0-5.07,3.44-8.25,7.78-8.25s7.71,3.29,7.71,8.14v1.7a.85.85,0,0,1-.87.83H54.27v.51C54.27,20.88,56,22.58,58.21,22.58Zm3.87-8c0-2.64-1.66-4.2-3.91-4.2s-3.91,1.56-3.91,4.2V15h7.82Z"/><path class="cls-1" d="M69,24.72V8.32a.83.83,0,0,1,.83-.87H72a.83.83,0,0,1,.83.87V9.52a5.54,5.54,0,0,1,5-2.42c4.45,0,6.59,3.33,6.59,8.25v9.37a.82.82,0,0,1-.83.83H81.41a.82.82,0,0,1-.83-.83V14.87c0-2.89-1.63-4.45-3.87-4.45S72.87,12,72.87,14.87v9.84a.82.82,0,0,1-.83.83H69.83A.82.82,0,0,1,69,24.72Z"/><path class="cls-1" d="M87.3,20.88a1.21,1.21,0,0,1,0-.51.56.56,0,0,1,.62-.58h2.24a.67.67,0,0,1,.69.54c.25,1,1,2.42,3.65,2.42,2.06,0,3.37-.65,3.37-2.28,0-3.76-10.28-.72-10.28-8.11,0-3.73,3.22-5.28,6.84-5.28,4.45,0,6.19,2.71,6.77,4.81a1.88,1.88,0,0,1,.07.51.64.64,0,0,1-.65.62H98.34c-.43,0-.54-.18-.69-.58-.36-1-1-2.21-3.4-2.21-1.56,0-3,.47-3,2,0,4,10.24.94,10.24,8.18,0,4.09-3.33,5.54-7.09,5.54C90,25.91,87.7,23.31,87.3,20.88Z"/><path class="cls-1" d="M111.62,22.58a3.49,3.49,0,0,0,3.55-2.17,1,1,0,0,1,.87-.51h2.32a.55.55,0,0,1,.58.58,1.9,1.9,0,0,1-.14.62,7.44,7.44,0,0,1-7.17,4.81c-4.34,0-7.82-3.15-7.82-8.21V15.34c0-5.07,3.44-8.25,7.78-8.25s7.71,3.29,7.71,8.14v1.7a.85.85,0,0,1-.87.83H107.67v.51C107.67,20.88,109.37,22.58,111.62,22.58Zm3.87-8c0-2.64-1.66-4.2-3.91-4.2s-3.91,1.56-3.91,4.2V15h7.82Z"/><path class="cls-1" d="M137.23,8.32V24.72a.82.82,0,0,1-.83.83h-2.21a.82.82,0,0,1-.83-.83V23.59a5.4,5.4,0,0,1-4.85,2.32c-4.23,0-6.3-3.15-6.3-8.21V8.32a.83.83,0,0,1,.83-.87h2.21a.83.83,0,0,1,.83.87v9.81c0,2.9,1.38,4.45,3.58,4.45s3.69-1.56,3.69-4.45V8.32a.83.83,0,0,1,.83-.87h2.21A.83.83,0,0,1,137.23,8.32Z"/><path class="cls-1" d="M141.17,24.72V8.32a.83.83,0,0,1,.83-.87h2a.86.86,0,0,1,.87.87v1.85a5.32,5.32,0,0,1,4.81-2.71h.47a.83.83,0,0,1,.83.87v2.17a.82.82,0,0,1-.83.83h-.54c-3,0-4.6,1.81-4.6,5.21v8.18a.83.83,0,0,1-.87.83H142A.82.82,0,0,1,141.17,24.72Z"/><path class="cls-1" d="M166,25.15V23a6,6,0,0,1-5.32,2.9c-4,0-7.06-2.79-7.06-7.85V15c0-5.07,3-7.89,7.06-7.89A5.89,5.89,0,0,1,166,10V.65a.39.39,0,0,1,.4-.43h.94a.42.42,0,0,1,.43.43v24.5a.39.39,0,0,1-.43.4h-.94A.36.36,0,0,1,166,25.15ZM166,18V14.73c0-3.84-2.32-5.93-5.32-5.93S155.35,11,155.35,15v3c0,4.05,2.17,6.23,5.25,6.23S166,22,166,18Z"/><path class="cls-1" d="M179.23,24.21a4.93,4.93,0,0,0,5.1-3.8c.07-.22.15-.33.36-.33h1.12a.25.25,0,0,1,.25.25,2,2,0,0,1-.11.47,6.73,6.73,0,0,1-6.73,5.1c-4.09,0-7.17-2.79-7.17-7.85V15c0-5.07,3-7.89,7.09-7.89s7.09,2.82,7.09,7.89v1.88a.39.39,0,0,1-.43.4h-12v1C173.84,22,176.16,24.21,179.23,24.21Zm5.25-9.26c0-3.94-2.21-6.15-5.32-6.15s-5.32,2.21-5.32,6.15v.62h10.64Z"/><path class="cls-1" d="M189.51,21.1a.34.34,0,0,1,.07-.25.34.34,0,0,1,.33-.18h.94c.29,0,.36.07.43.33.4,1.66,2,3.22,4.81,3.22,2.5,0,4.74-.8,4.74-3.4,0-5.47-11-1.12-11-8.94,0-3.55,3.36-4.78,5.93-4.78,6.51,0,6.37,4.78,6.37,4.78v.07a.42.42,0,0,1-.4.33h-1c-.25,0-.36-.11-.4-.4-.18-1.19-.72-3.08-4.6-3.08-1.7,0-4.16.65-4.16,3.08,0,5.72,11,1.45,11,8.94,0,3.69-2.93,5.1-6.55,5.1C192.18,25.91,189.83,23.67,189.51,21.1Z"/><path class="cls-1" d="M217,24.72V23.52a5.72,5.72,0,0,1-5.07,2.39c-3.95,0-6.62-2.9-6.62-8.4V15.34c0-5.39,2.57-8.25,6.62-8.25A5.75,5.75,0,0,1,217,9.48V1.09a.83.83,0,0,1,.83-.87H220a.83.83,0,0,1,.83.87V24.72a.82.82,0,0,1-.83.83h-2.21A.82.82,0,0,1,217,24.72Zm0-6.59V14.8c0-2.5-1.38-4.38-3.91-4.38s-3.91,1.92-3.91,4.49v3.22c0,2.57,1.3,4.45,3.87,4.45S217,20.7,217,18.13Z"/><path class="cls-1" d="M224.93,24.72V8.32a.83.83,0,0,1,.83-.87h2a.86.86,0,0,1,.87.87v1.85a5.32,5.32,0,0,1,4.81-2.71h.47a.83.83,0,0,1,.83.87v2.17a.82.82,0,0,1-.83.83h-.54c-3,0-4.6,1.81-4.6,5.21v8.18a.83.83,0,0,1-.87.83h-2.14A.82.82,0,0,1,224.93,24.72Z"/><path class="cls-1" d="M244.21,7.09c4.34,0,7.78,3.18,7.78,8.25V17.7c0,5.07-3.44,8.21-7.78,8.21s-7.78-3.15-7.78-8.21V15.34C236.43,10.28,239.83,7.09,244.21,7.09Zm0,15.49c2.24,0,3.87-1.56,3.87-4.45V14.87c0-2.89-1.63-4.45-3.87-4.45S240.3,12,240.3,14.87v3.26C240.3,21,242,22.58,244.21,22.58Z"/><path class="cls-1" d="M259.62,2.35a2.37,2.37,0,0,1-4.74,0,2.37,2.37,0,0,1,4.74,0Zm-4.31,22.36V8.32a.83.83,0,0,1,.83-.87h2.21a.83.83,0,0,1,.83.87V24.72a.82.82,0,0,1-.83.83h-2.21A.82.82,0,0,1,255.32,24.72Z"/><path class="cls-1" d="M264.22,19.76V10.89h-2.5a.82.82,0,0,1-.83-.83V8.32a.83.83,0,0,1,.83-.87c1.77,0,2.53-.4,2.53-2.28V3.62a.83.83,0,0,1,.83-.87h2.1a.86.86,0,0,1,.87.87V7.46h3.65a.83.83,0,0,1,.83.87v1.74a.82.82,0,0,1-.83.83h-3.65v8.29c0,2.06.25,2.82,2.39,2.82h1.27a.85.85,0,0,1,.83.87v1.84a.82.82,0,0,1-.83.83h-1.92C265.45,25.55,264.22,23.49,264.22,19.76Z"/><path class="cls-1" d="M274.06,20.88a1.2,1.2,0,0,1,0-.51.56.56,0,0,1,.62-.58h2.24a.67.67,0,0,1,.69.54c.25,1,1,2.42,3.65,2.42,2.06,0,3.37-.65,3.37-2.28,0-3.76-10.28-.72-10.28-8.11,0-3.73,3.22-5.28,6.84-5.28,4.45,0,6.19,2.71,6.77,4.81a1.91,1.91,0,0,1,.07.51.64.64,0,0,1-.65.62H285.1c-.43,0-.54-.18-.69-.58-.36-1-1-2.21-3.4-2.21-1.56,0-3,.47-3,2,0,4,10.24.94,10.24,8.18,0,4.09-3.33,5.54-7.09,5.54C276.77,25.91,274.46,23.31,274.06,20.88Z"/></g></g></svg>