<svg xmlns="http://www.w3.org/2000/svg" viewBox="0 0 80.5 80.5"><defs><style>.cls-1{fill:none;stroke:#fff;stroke-miterlimit:10;stroke-width:0.5px;}.cls-2{fill:#fff;}</style></defs><title>Fichier 2</title><g id="Calque_2" data-name="Calque 2"><g id="_24_Grid_Col" data-name="24 Grid Col"><circle class="cls-1" cx="40.25" cy="40.25" r="40"/><path class="cls-2" d="M67.13,33.1C64.8,19.44,52.42,19,52.42,19H28.08S15.7,19.44,13.37,33.1c-.81,4.74,2.53,4.26,2.53,4.26h6c3.75,0,3.63-4.24,3.63-4.24.59-3.32,2.61-7.37,9-7.37H46c6.39,0,8.42,4.06,9,7.37,0,0-.13,4.24,3.62,4.24h6s3.34.48,2.54-4.26"/><path class="cls-2" d="M40.63,55.8a8.45,8.45,0,1,1,8.47-8.45,8.46,8.46,0,0,1-8.47,8.45M58.8,48.68C52.72,37.89,49.67,33.5,49.67,33.5H31.08L21.27,50S14.5,61.49,29,61.49H55.76s9.13-2,3-12.81"/></g></g></svg>