<svg xmlns="http://www.w3.org/2000/svg" viewBox="0 0 22.75 18.49"><defs><style>.cls-1{fill:#fff;}</style></defs><title>twit</title><g id="Layer_2" data-name="Layer 2"><g id="Calque_1" data-name="Calque 1"><path class="cls-1" d="M22.75,2.19a9.33,9.33,0,0,1-2.68.73A4.67,4.67,0,0,0,22.12.34a9.23,9.23,0,0,1-3,1.13,4.68,4.68,0,0,0-8.08,3.2,5.3,5.3,0,0,0,.12,1.06A13.23,13.23,0,0,1,1.58.85,4.68,4.68,0,0,0,3,7.09,4.73,4.73,0,0,1,.91,6.5v.06a4.68,4.68,0,0,0,3.75,4.58,5,5,0,0,1-1.23.16,5.05,5.05,0,0,1-.88-.08,4.68,4.68,0,0,0,4.36,3.24,9.39,9.39,0,0,1-5.8,2A10.18,10.18,0,0,1,0,16.39a13.17,13.17,0,0,0,7.15,2.1A13.18,13.18,0,0,0,20.43,5.21c0-.2,0-.41,0-.61a9.37,9.37,0,0,0,2.33-2.41"/></g></g></svg>