<svg xmlns="http://www.w3.org/2000/svg" viewBox="0 0 45.1 35.23"><defs><style>.cls-1{fill:#3c3c3b;}</style></defs><title>whistle</title><g id="Layer_2" data-name="Layer 2"><g id="Calque_1" data-name="Calque 1"><rect class="cls-1" x="26.42" y="4.9" width="7.83" height="1.96" transform="translate(9.3 28.51) rotate(-58.05)"/><rect class="cls-1" x="21.55" width="1.96" height="7.83"/><polygon class="cls-1" points="17.55 8.69 13.4 2.04 11.75 3.08 15.89 9.73 17.55 8.69"/><path class="cls-1" d="M3.91,25.36a2,2,0,0,1,0-3.91,2,2,0,1,1,0,3.91m41.16-7.61,0-5.86-19.58-.11,0,3.92-5.88,0,0-3.91H17.69A11.82,11.82,0,0,0,6.28,20.29a4.27,4.27,0,0,0-2.35-.79,3.92,3.92,0,0,0,0,7.83,4.22,4.22,0,0,0,2.36-.77,11.77,11.77,0,0,0,23.13-3A11,11,0,0,0,29.2,21l15.88-3.24Z"/></g></g></svg>