<svg xmlns="http://www.w3.org/2000/svg" viewBox="0 0 94.17 116.69"><defs><style>.cls-1{fill:#0080c9;}</style></defs><title>Fichier 2</title><g id="Calque_2" data-name="Calque 2"><g id="Calque_1-2" data-name="Calque 1"><path class="cls-1" d="M47.09,86.88a1.76,1.76,0,0,1-1.76-1.75V45.6a1.75,1.75,0,1,1,3.51,0V85.13a1.76,1.76,0,0,1-1.75,1.75Zm0,0"/><path class="cls-1" d="M47.09,86.88a1.75,1.75,0,0,1-1.25-.51L30.72,71.25a1.75,1.75,0,0,1,2.48-2.48L47.07,82.65,61,68.77a1.76,1.76,0,0,1,2.48,2.48L48.32,86.37a1.73,1.73,0,0,1-1.23.51Zm0,0"/><path class="cls-1" d="M85.41,116.69H8.76A8.77,8.77,0,0,1,0,107.93V8.76A8.78,8.78,0,0,1,8.76,0H64.42a1.75,1.75,0,0,1,0,3.51H8.76A5.27,5.27,0,0,0,3.51,8.76v99.17a5.27,5.27,0,0,0,5.25,5.28H85.41a5.27,5.27,0,0,0,5.25-5.28V30.51a1.75,1.75,0,1,1,3.51,0v77.43a8.76,8.76,0,0,1-8.76,8.75Zm0,0"/><path class="cls-1" d="M92.41,32.26h-28a1.76,1.76,0,0,1-1.76-1.75v-28a1.75,1.75,0,1,1,3.51,0V28.75H92.41a1.75,1.75,0,1,1,0,3.51Zm0,0"/><path class="cls-1" d="M92.41,32.26a1.72,1.72,0,0,1-1.25-.53L63.16,3a1.77,1.77,0,0,1,0-2.48,1.77,1.77,0,0,1,2.48,0l28,28.75a1.78,1.78,0,0,1,0,2.48,1.8,1.8,0,0,1-1.23.5Zm0,0"/></g></g></svg>